STARTFONT 2.1
FONT -Adobe-Helvetica-Medium-R-Normal--12-120-75-75-P-67-ISO10646-1
SIZE 12 75 75
FONTBOUNDINGBOX 14 20 -1 -5
COMMENT $XFree86$
COMMENT ISO10646-1 extension by Markus Kuhn <mkuhn@acm.org>, 2001-03-20
COMMENT 
COMMENT +
COMMENT  Copyright 1984-1989, 1994 Adobe Systems Incorporated.
COMMENT  Copyright 1988, 1994 Digital Equipment Corporation.
COMMENT
COMMENT  Adobe is a trademark of Adobe Systems Incorporated which may be
COMMENT  registered in certain jurisdictions.
COMMENT  Permission to use these trademarks is hereby granted only in
COMMENT  association with the images described in this file.
COMMENT
COMMENT  Permission to use, copy, modify, distribute and sell this software
COMMENT  and its documentation for any purpose and without fee is hereby
COMMENT  granted, provided that the above copyright notices appear in all
COMMENT  copies and that both those copyright notices and this permission
COMMENT  notice appear in supporting documentation, and that the names of
COMMENT  Adobe Systems and Digital Equipment Corporation not be used in
COMMENT  advertising or publicity pertaining to distribution of the software
COMMENT  without specific, written prior permission.  Adobe Systems and
COMMENT  Digital Equipment Corporation make no representations about the
COMMENT  suitability of this software for any purpose.  It is provided "as
COMMENT  is" without express or implied warranty.
COMMENT -
STARTPROPERTIES 26
FOUNDRY "Adobe"
FAMILY_NAME "Helvetica"
WEIGHT_NAME "Medium"
SLANT "R"
SETWIDTH_NAME "Normal"
ADD_STYLE_NAME ""
PIXEL_SIZE 12
POINT_SIZE 120
RESOLUTION_X 75
RESOLUTION_Y 75
SPACING "P"
AVERAGE_WIDTH 67
CHARSET_REGISTRY "ISO10646"
CHARSET_ENCODING "1"
CAP_HEIGHT 9
X_HEIGHT 7
FONT_ASCENT 11
FONT_DESCENT 3
FACE_NAME "Helvetica"
COPYRIGHT "Copyright (c) 1984, 1987 Adobe Systems Incorporated. All Rights Reserved. Copyright (c) 1988, 1991 Digital Equipment Corporation. All Rights Reserved."

STARTCHAR char0
ENCODING 0
SWIDTH 722 0
DWIDTH 9 0
BBX 7 9 1 0
BITMAP
AA
00
82
00
82
00
82
00
AA
ENDCHAR
STARTCHAR space
ENCODING 32
SWIDTH 278 0
DWIDTH 4 0
BBX 1 1 0 0
BITMAP
00
ENDCHAR
STARTCHAR exclam
ENCODING 33
SWIDTH 278 0
DWIDTH 3 0
BBX 1 9 1 0
BITMAP
80
80
80
80
80
80
80
00
80
ENDCHAR
STARTCHAR quotedbl
ENCODING 34
SWIDTH 355 0
DWIDTH 5 0
BBX 3 3 1 6
BITMAP
A0
A0
A0
ENDCHAR
STARTCHAR numbersign
ENCODING 35
SWIDTH 556 0
DWIDTH 7 0
BBX 6 8 0 0
BITMAP
28
28
FC
28
FC
50
50
50
ENDCHAR
STARTCHAR dollar
ENCODING 36
SWIDTH 556 0
DWIDTH 7 0
BBX 5 10 1 -1
BITMAP
20
70
A8
A0
70
28
A8
A8
70
20
ENDCHAR
STARTCHAR percent
ENCODING 37
SWIDTH 889 0
DWIDTH 11 0
BBX 9 9 1 0
BITMAP
6200
9400
9400
6800
0800
1300
1480
1480
2300
ENDCHAR
STARTCHAR ampersand
ENCODING 38
SWIDTH 667 0
DWIDTH 9 0
BBX 7 9 1 0
BITMAP
30
48
48
30
50
8A
84
8C
72
ENDCHAR
STARTCHAR quotesingle
ENCODING 39
SWIDTH 191 0
DWIDTH 3 0
BBX 1 3 1 6
BITMAP
80
80
80
ENDCHAR
STARTCHAR parenleft
ENCODING 40
SWIDTH 333 0
DWIDTH 4 0
BBX 3 12 1 -3
BITMAP
20
40
40
80
80
80
80
80
80
40
40
20
ENDCHAR
STARTCHAR parenright
ENCODING 41
SWIDTH 333 0
DWIDTH 4 0
BBX 3 12 0 -3
BITMAP
80
40
40
20
20
20
20
20
20
40
40
80
ENDCHAR
STARTCHAR asterisk
ENCODING 42
SWIDTH 389 0
DWIDTH 5 0
BBX 3 3 1 6
BITMAP
A0
40
A0
ENDCHAR
STARTCHAR plus
ENCODING 43
SWIDTH 584 0
DWIDTH 7 0
BBX 5 5 1 1
BITMAP
20
20
F8
20
20
ENDCHAR
STARTCHAR comma
ENCODING 44
SWIDTH 278 0
DWIDTH 4 0
BBX 2 3 1 -2
BITMAP
40
40
80
ENDCHAR
STARTCHAR hyphen
ENCODING 45
SWIDTH 333 0
DWIDTH 5 0
BBX 4 1 0 3
BITMAP
F0
ENDCHAR
STARTCHAR period
ENCODING 46
SWIDTH 278 0
DWIDTH 3 0
BBX 1 1 1 0
BITMAP
80
ENDCHAR
STARTCHAR slash
ENCODING 47
SWIDTH 278 0
DWIDTH 4 0
BBX 4 9 0 0
BITMAP
10
10
20
20
40
40
40
80
80
ENDCHAR
STARTCHAR zero
ENCODING 48
SWIDTH 556 0
DWIDTH 7 0
BBX 5 9 1 0
BITMAP
70
88
88
88
88
88
88
88
70
ENDCHAR
STARTCHAR one
ENCODING 49
SWIDTH 556 0
DWIDTH 7 0
BBX 3 9 1 0
BITMAP
20
E0
20
20
20
20
20
20
20
ENDCHAR
STARTCHAR two
ENCODING 50
SWIDTH 556 0
DWIDTH 7 0
BBX 5 9 1 0
BITMAP
70
88
08
10
20
40
80
80
F8
ENDCHAR
STARTCHAR three
ENCODING 51
SWIDTH 556 0
DWIDTH 7 0
BBX 5 9 1 0
BITMAP
70
88
08
30
08
08
88
88
70
ENDCHAR
STARTCHAR four
ENCODING 52
SWIDTH 556 0
DWIDTH 7 0
BBX 6 9 0 0
BITMAP
08
18
28
28
48
88
FC
08
08
ENDCHAR
STARTCHAR five
ENCODING 53
SWIDTH 556 0
DWIDTH 7 0
BBX 5 9 1 0
BITMAP
F8
80
80
F0
08
08
88
88
70
ENDCHAR
STARTCHAR six
ENCODING 54
SWIDTH 556 0
DWIDTH 7 0
BBX 5 9 1 0
BITMAP
70
88
80
B0
C8
88
88
88
70
ENDCHAR
STARTCHAR seven
ENCODING 55
SWIDTH 556 0
DWIDTH 7 0
BBX 5 9 1 0
BITMAP
F8
08
10
10
20
20
20
40
40
ENDCHAR
STARTCHAR eight
ENCODING 56
SWIDTH 556 0
DWIDTH 7 0
BBX 5 9 1 0
BITMAP
70
88
88
70
88
88
88
88
70
ENDCHAR
STARTCHAR nine
ENCODING 57
SWIDTH 556 0
DWIDTH 7 0
BBX 5 9 1 0
BITMAP
70
88
88
88
78
08
08
88
70
ENDCHAR
STARTCHAR colon
ENCODING 58
SWIDTH 278 0
DWIDTH 3 0
BBX 1 6 1 0
BITMAP
80
00
00
00
00
80
ENDCHAR
STARTCHAR semicolon
ENCODING 59
SWIDTH 278 0
DWIDTH 3 0
BBX 2 8 0 -2
BITMAP
40
00
00
00
00
40
40
80
ENDCHAR
STARTCHAR less
ENCODING 60
SWIDTH 584 0
DWIDTH 7 0
BBX 6 5 0 1
BITMAP
0C
30
C0
30
0C
ENDCHAR
STARTCHAR equal
ENCODING 61
SWIDTH 584 0
DWIDTH 7 0
BBX 5 3 1 2
BITMAP
F8
00
F8
ENDCHAR
STARTCHAR greater
ENCODING 62
SWIDTH 584 0
DWIDTH 7 0
BBX 6 5 1 1
BITMAP
C0
30
0C
30
C0
ENDCHAR
STARTCHAR question
ENCODING 63
SWIDTH 556 0
DWIDTH 7 0
BBX 5 9 1 0
BITMAP
70
88
88
10
10
20
20
00
20
ENDCHAR
STARTCHAR at
ENCODING 64
SWIDTH 1015 0
DWIDTH 12 0
BBX 10 10 1 -1
BITMAP
1F00
6080
4D40
9240
A240
A240
A680
9B00
4000
3E00
ENDCHAR
STARTCHAR A
ENCODING 65
SWIDTH 667 0
DWIDTH 9 0
BBX 7 9 1 0
BITMAP
10
28
28
44
44
7C
82
82
82
ENDCHAR
STARTCHAR B
ENCODING 66
SWIDTH 667 0
DWIDTH 8 0
BBX 6 9 1 0
BITMAP
F8
84
84
84
F8
84
84
84
F8
ENDCHAR
STARTCHAR C
ENCODING 67
SWIDTH 722 0
DWIDTH 9 0
BBX 7 9 1 0
BITMAP
3C
42
80
80
80
80
80
42
3C
ENDCHAR
STARTCHAR D
ENCODING 68
SWIDTH 722 0
DWIDTH 9 0
BBX 7 9 1 0
BITMAP
F8
84
82
82
82
82
82
84
F8
ENDCHAR
STARTCHAR E
ENCODING 69
SWIDTH 667 0
DWIDTH 8 0
BBX 6 9 1 0
BITMAP
FC
80
80
80
FC
80
80
80
FC
ENDCHAR
STARTCHAR F
ENCODING 70
SWIDTH 611 0
DWIDTH 8 0
BBX 6 9 1 0
BITMAP
FC
80
80
80
F8
80
80
80
80
ENDCHAR
STARTCHAR G
ENCODING 71
SWIDTH 778 0
DWIDTH 9 0
BBX 7 9 1 0
BITMAP
3C
42
80
80
8E
82
82
46
3A
ENDCHAR
STARTCHAR H
ENCODING 72
SWIDTH 722 0
DWIDTH 9 0
BBX 7 9 1 0
BITMAP
82
82
82
82
FE
82
82
82
82
ENDCHAR
STARTCHAR I
ENCODING 73
SWIDTH 278 0
DWIDTH 3 0
BBX 1 9 1 0
BITMAP
80
80
80
80
80
80
80
80
80
ENDCHAR
STARTCHAR J
ENCODING 74
SWIDTH 500 0
DWIDTH 7 0
BBX 5 9 1 0
BITMAP
08
08
08
08
08
08
88
88
70
ENDCHAR
STARTCHAR K
ENCODING 75
SWIDTH 667 0
DWIDTH 8 0
BBX 7 9 1 0
BITMAP
84
88
90
A0
E0
90
88
84
82
ENDCHAR
STARTCHAR L
ENCODING 76
SWIDTH 556 0
DWIDTH 7 0
BBX 5 9 1 0
BITMAP
80
80
80
80
80
80
80
80
F8
ENDCHAR
STARTCHAR M
ENCODING 77
SWIDTH 833 0
DWIDTH 11 0
BBX 9 9 1 0
BITMAP
8080
C180
C180
A280
A280
9480
9480
8880
8880
ENDCHAR
STARTCHAR N
ENCODING 78
SWIDTH 722 0
DWIDTH 9 0
BBX 7 9 1 0
BITMAP
82
C2
A2
A2
92
8A
8A
86
82
ENDCHAR
STARTCHAR O
ENCODING 79
SWIDTH 778 0
DWIDTH 10 0
BBX 8 9 1 0
BITMAP
3C
42
81
81
81
81
81
42
3C
ENDCHAR
STARTCHAR P
ENCODING 80
SWIDTH 667 0
DWIDTH 8 0
BBX 6 9 1 0
BITMAP
F8
84
84
84
F8
80
80
80
80
ENDCHAR
STARTCHAR Q
ENCODING 81
SWIDTH 778 0
DWIDTH 10 0
BBX 8 9 1 0
BITMAP
3C
42
81
81
81
89
85
42
3D
ENDCHAR
STARTCHAR R
ENCODING 82
SWIDTH 722 0
DWIDTH 8 0
BBX 6 9 1 0
BITMAP
F8
84
84
84
F8
88
84
84
84
ENDCHAR
STARTCHAR S
ENCODING 83
SWIDTH 667 0
DWIDTH 8 0
BBX 6 9 1 0
BITMAP
78
84
80
60
18
04
84
84
78
ENDCHAR
STARTCHAR T
ENCODING 84
SWIDTH 611 0
DWIDTH 7 0
BBX 7 9 0 0
BITMAP
FE
10
10
10
10
10
10
10
10
ENDCHAR
STARTCHAR U
ENCODING 85
SWIDTH 722 0
DWIDTH 8 0
BBX 6 9 1 0
BITMAP
84
84
84
84
84
84
84
84
78
ENDCHAR
STARTCHAR V
ENCODING 86
SWIDTH 667 0
DWIDTH 9 0
BBX 7 9 1 0
BITMAP
82
82
44
44
44
28
28
10
10
ENDCHAR
STARTCHAR W
ENCODING 87
SWIDTH 944 0
DWIDTH 11 0
BBX 9 9 1 0
BITMAP
8880
8880
8880
4900
5500
5500
2200
2200
2200
ENDCHAR
STARTCHAR X
ENCODING 88
SWIDTH 667 0
DWIDTH 9 0
BBX 7 9 1 0
BITMAP
82
44
44
28
10
28
44
44
82
ENDCHAR
STARTCHAR Y
ENCODING 89
SWIDTH 667 0
DWIDTH 9 0
BBX 7 9 1 0
BITMAP
82
82
44
44
28
10
10
10
10
ENDCHAR
STARTCHAR Z
ENCODING 90
SWIDTH 611 0
DWIDTH 9 0
BBX 7 9 1 0
BITMAP
FE
02
04
08
10
20
40
80
FE
ENDCHAR
STARTCHAR bracketleft
ENCODING 91
SWIDTH 278 0
DWIDTH 3 0
BBX 2 12 1 -3
BITMAP
C0
80
80
80
80
80
80
80
80
80
80
C0
ENDCHAR
STARTCHAR backslash
ENCODING 92
SWIDTH 278 0
DWIDTH 4 0
BBX 4 9 0 0
BITMAP
80
80
40
40
20
20
20
10
10
ENDCHAR
STARTCHAR bracketright
ENCODING 93
SWIDTH 278 0
DWIDTH 3 0
BBX 2 12 0 -3
BITMAP
C0
40
40
40
40
40
40
40
40
40
40
C0
ENDCHAR
STARTCHAR asciicircum
ENCODING 94
SWIDTH 469 0
DWIDTH 6 0
BBX 5 3 0 5
BITMAP
20
50
88
ENDCHAR
STARTCHAR underscore
ENCODING 95
SWIDTH 556 0
DWIDTH 7 0
BBX 7 1 0 -2
BITMAP
FE
ENDCHAR
STARTCHAR grave
ENCODING 96
SWIDTH 333 0
DWIDTH 2 0
BBX 2 2 0 8
BITMAP
80
40
ENDCHAR
STARTCHAR a
ENCODING 97
SWIDTH 556 0
DWIDTH 7 0
BBX 6 7 1 0
BITMAP
70
88
08
78
88
88
74
ENDCHAR
STARTCHAR b
ENCODING 98
SWIDTH 556 0
DWIDTH 7 0
BBX 5 9 1 0
BITMAP
80
80
B0
C8
88
88
88
C8
B0
ENDCHAR
STARTCHAR c
ENCODING 99
SWIDTH 500 0
DWIDTH 7 0
BBX 5 7 1 0
BITMAP
70
88
80
80
80
88
70
ENDCHAR
STARTCHAR d
ENCODING 100
SWIDTH 556 0
DWIDTH 7 0
BBX 5 9 1 0
BITMAP
08
08
68
98
88
88
88
98
68
ENDCHAR
STARTCHAR e
ENCODING 101
SWIDTH 556 0
DWIDTH 7 0
BBX 5 7 1 0
BITMAP
70
88
88
F8
80
88
70
ENDCHAR
STARTCHAR f
ENCODING 102
SWIDTH 278 0
DWIDTH 3 0
BBX 4 9 0 0
BITMAP
30
40
E0
40
40
40
40
40
40
ENDCHAR
STARTCHAR g
ENCODING 103
SWIDTH 556 0
DWIDTH 7 0
BBX 5 10 1 -3
BITMAP
68
98
88
88
88
98
68
08
88
70
ENDCHAR
STARTCHAR h
ENCODING 104
SWIDTH 556 0
DWIDTH 7 0
BBX 5 9 1 0
BITMAP
80
80
B0
C8
88
88
88
88
88
ENDCHAR
STARTCHAR i
ENCODING 105
SWIDTH 222 0
DWIDTH 3 0
BBX 1 9 1 0
BITMAP
80
00
80
80
80
80
80
80
80
ENDCHAR
STARTCHAR j
ENCODING 106
SWIDTH 222 0
DWIDTH 3 0
BBX 2 12 0 -3
BITMAP
40
00
40
40
40
40
40
40
40
40
40
80
ENDCHAR
STARTCHAR k
ENCODING 107
SWIDTH 500 0
DWIDTH 6 0
BBX 5 9 1 0
BITMAP
80
80
90
A0
C0
C0
A0
90
88
ENDCHAR
STARTCHAR l
ENCODING 108
SWIDTH 222 0
DWIDTH 3 0
BBX 1 9 1 0
BITMAP
80
80
80
80
80
80
80
80
80
ENDCHAR
STARTCHAR m
ENCODING 109
SWIDTH 833 0
DWIDTH 9 0
BBX 7 7 1 0
BITMAP
A4
DA
92
92
92
92
92
ENDCHAR
STARTCHAR n
ENCODING 110
SWIDTH 556 0
DWIDTH 7 0
BBX 5 7 1 0
BITMAP
B0
C8
88
88
88
88
88
ENDCHAR
STARTCHAR o
ENCODING 111
SWIDTH 556 0
DWIDTH 7 0
BBX 5 7 1 0
BITMAP
70
88
88
88
88
88
70
ENDCHAR
STARTCHAR p
ENCODING 112
SWIDTH 556 0
DWIDTH 7 0
BBX 5 10 1 -3
BITMAP
B0
C8
88
88
88
C8
B0
80
80
80
ENDCHAR
STARTCHAR q
ENCODING 113
SWIDTH 556 0
DWIDTH 7 0
BBX 5 10 1 -3
BITMAP
68
98
88
88
88
98
68
08
08
08
ENDCHAR
STARTCHAR r
ENCODING 114
SWIDTH 333 0
DWIDTH 4 0
BBX 3 7 1 0
BITMAP
A0
C0
80
80
80
80
80
ENDCHAR
STARTCHAR s
ENCODING 115
SWIDTH 500 0
DWIDTH 6 0
BBX 4 7 1 0
BITMAP
60
90
80
60
10
90
60
ENDCHAR
STARTCHAR t
ENCODING 116
SWIDTH 278 0
DWIDTH 3 0
BBX 3 9 0 0
BITMAP
40
40
E0
40
40
40
40
40
60
ENDCHAR
STARTCHAR u
ENCODING 117
SWIDTH 556 0
DWIDTH 7 0
BBX 5 7 1 0
BITMAP
88
88
88
88
88
98
68
ENDCHAR
STARTCHAR v
ENCODING 118
SWIDTH 500 0
DWIDTH 7 0
BBX 5 7 1 0
BITMAP
88
88
88
50
50
20
20
ENDCHAR
STARTCHAR w
ENCODING 119
SWIDTH 722 0
DWIDTH 9 0
BBX 9 7 0 0
BITMAP
8880
8880
4900
4900
5500
2200
2200
ENDCHAR
STARTCHAR x
ENCODING 120
SWIDTH 500 0
DWIDTH 6 0
BBX 6 7 0 0
BITMAP
84
48
30
30
48
84
84
ENDCHAR
STARTCHAR y
ENCODING 121
SWIDTH 500 0
DWIDTH 7 0
BBX 5 10 1 -3
BITMAP
88
88
88
90
50
50
20
20
40
80
ENDCHAR
STARTCHAR z
ENCODING 122
SWIDTH 500 0
DWIDTH 6 0
BBX 4 7 1 0
BITMAP
F0
10
20
40
40
80
F0
ENDCHAR
STARTCHAR braceleft
ENCODING 123
SWIDTH 334 0
DWIDTH 4 0
BBX 4 12 0 -3
BITMAP
30
40
40
40
40
80
40
40
40
40
40
30
ENDCHAR
STARTCHAR bar
ENCODING 124
SWIDTH 260 0
DWIDTH 3 0
BBX 1 12 1 -3
BITMAP
80
80
80
80
80
80
80
80
80
80
80
80
ENDCHAR
STARTCHAR braceright
ENCODING 125
SWIDTH 334 0
DWIDTH 4 0
BBX 4 12 0 -3
BITMAP
C0
20
20
20
20
10
20
20
20
20
20
C0
ENDCHAR
STARTCHAR asciitilde
ENCODING 126
SWIDTH 584 0
DWIDTH 7 0
BBX 6 2 0 3
BITMAP
64
98
ENDCHAR
STARTCHAR space
ENCODING 160
SWIDTH 278 0
DWIDTH 4 0
BBX 1 1 0 0
BITMAP
00
ENDCHAR
STARTCHAR exclamdown
ENCODING 161
SWIDTH 333 0
DWIDTH 3 0
BBX 1 10 1 -3
BITMAP
80
00
80
80
80
80
80
80
80
80
ENDCHAR
STARTCHAR cent
ENCODING 162
SWIDTH 556 0
DWIDTH 7 0
BBX 5 9 1 -1
BITMAP
10
70
A8
A0
A0
A0
C8
70
40
ENDCHAR
STARTCHAR sterling
ENCODING 163
SWIDTH 556 0
DWIDTH 7 0
BBX 5 9 1 0
BITMAP
30
48
40
40
F0
20
20
48
B0
ENDCHAR
STARTCHAR currency
ENCODING 164
SWIDTH 556 0
DWIDTH 7 0
BBX 6 6 0 1
BITMAP
84
78
48
48
78
84
ENDCHAR
STARTCHAR yen
ENCODING 165
SWIDTH 556 0
DWIDTH 7 0
BBX 5 9 1 0
BITMAP
88
88
50
20
F8
20
F8
20
20
ENDCHAR
STARTCHAR brokenbar
ENCODING 166
SWIDTH 260 0
DWIDTH 3 0
BBX 1 11 1 -2
BITMAP
80
80
80
80
00
00
00
80
80
80
80
ENDCHAR
STARTCHAR section
ENCODING 167
SWIDTH 556 0
DWIDTH 6 0
BBX 5 12 0 -3
BITMAP
70
88
80
60
90
88
88
48
30
08
88
70
ENDCHAR
STARTCHAR dieresis
ENCODING 168
SWIDTH 333 0
DWIDTH 3 0
BBX 3 1 0 8
BITMAP
A0
ENDCHAR
STARTCHAR copyright
ENCODING 169
SWIDTH 737 0
DWIDTH 11 0
BBX 9 9 1 0
BITMAP
3E00
4100
9C80
A280
A080
A280
9C80
4100
3E00
ENDCHAR
STARTCHAR ordfeminine
ENCODING 170
SWIDTH 370 0
DWIDTH 5 0
BBX 3 5 1 4
BITMAP
E0
20
A0
00
E0
ENDCHAR
STARTCHAR guillemotleft
ENCODING 171
SWIDTH 556 0
DWIDTH 7 0
BBX 5 5 1 1
BITMAP
28
50
A0
50
28
ENDCHAR
STARTCHAR logicalnot
ENCODING 172
SWIDTH 584 0
DWIDTH 8 0
BBX 6 4 1 2
BITMAP
FC
04
04
04
ENDCHAR
STARTCHAR hyphen
ENCODING 173
SWIDTH 333 0
DWIDTH 5 0
BBX 4 1 0 3
BITMAP
F0
ENDCHAR
STARTCHAR registered
ENCODING 174
SWIDTH 737 0
DWIDTH 11 0
BBX 9 9 1 0
BITMAP
3E00
4100
9C80
9480
9880
9480
9480
4100
3E00
ENDCHAR
STARTCHAR macron
ENCODING 175
SWIDTH 333 0
DWIDTH 4 0
BBX 4 1 0 8
BITMAP
F0
ENDCHAR
STARTCHAR degree
ENCODING 176
SWIDTH 400 0
DWIDTH 5 0
BBX 4 4 0 4
BITMAP
60
90
90
60
ENDCHAR
STARTCHAR plusminus
ENCODING 177
SWIDTH 584 0
DWIDTH 7 0
BBX 5 7 1 0
BITMAP
20
20
F8
20
20
00
F8
ENDCHAR
STARTCHAR twosuperior
ENCODING 178
SWIDTH 333 0
DWIDTH 4 0
BBX 4 5 0 3
BITMAP
60
90
20
40
F0
ENDCHAR
STARTCHAR threesuperior
ENCODING 179
SWIDTH 333 0
DWIDTH 4 0
BBX 3 5 0 3
BITMAP
E0
20
40
20
C0
ENDCHAR
STARTCHAR acute
ENCODING 180
SWIDTH 333 0
DWIDTH 2 0
BBX 2 2 0 8
BITMAP
40
80
ENDCHAR
STARTCHAR mu
ENCODING 181
SWIDTH 556 0
DWIDTH 7 0
BBX 5 10 1 -3
BITMAP
88
88
88
88
88
98
E8
80
80
80
ENDCHAR
STARTCHAR paragraph
ENCODING 182
SWIDTH 537 0
DWIDTH 7 0
BBX 6 12 0 -3
BITMAP
3C
68
E8
E8
E8
68
28
28
28
28
28
28
ENDCHAR
STARTCHAR periodcentered
ENCODING 183
SWIDTH 278 0
DWIDTH 3 0
BBX 1 1 1 3
BITMAP
80
ENDCHAR
STARTCHAR cedilla
ENCODING 184
SWIDTH 333 0
DWIDTH 3 0
BBX 3 4 0 -3
BITMAP
40
20
20
C0
ENDCHAR
STARTCHAR onesuperior
ENCODING 185
SWIDTH 333 0
DWIDTH 4 0
BBX 2 5 1 3
BITMAP
40
C0
40
40
40
ENDCHAR
STARTCHAR ordmasculine
ENCODING 186
SWIDTH 365 0
DWIDTH 5 0
BBX 3 5 1 4
BITMAP
E0
A0
E0
00
E0
ENDCHAR
STARTCHAR guillemotright
ENCODING 187
SWIDTH 556 0
DWIDTH 7 0
BBX 5 5 1 1
BITMAP
A0
50
28
50
A0
ENDCHAR
STARTCHAR onequarter
ENCODING 188
SWIDTH 834 0
DWIDTH 10 0
BBX 9 9 0 0
BITMAP
4100
C200
4400
4400
4900
1300
1500
2780
4100
ENDCHAR
STARTCHAR onehalf
ENCODING 189
SWIDTH 834 0
DWIDTH 10 0
BBX 9 9 0 0
BITMAP
4100
C200
4400
4800
4B00
1480
1100
2200
4780
ENDCHAR
STARTCHAR threequarters
ENCODING 190
SWIDTH 834 0
DWIDTH 10 0
BBX 9 9 0 0
BITMAP
E100
2200
4400
2400
C900
0B00
1500
1780
2100
ENDCHAR
STARTCHAR questiondown
ENCODING 191
SWIDTH 611 0
DWIDTH 7 0
BBX 5 9 1 -3
BITMAP
20
00
20
20
40
40
88
88
70
ENDCHAR
STARTCHAR Agrave
ENCODING 192
SWIDTH 667 0
DWIDTH 9 0
BBX 7 12 1 0
BITMAP
20
10
00
10
10
28
44
44
7C
82
82
82
ENDCHAR
STARTCHAR Aacute
ENCODING 193
SWIDTH 667 0
DWIDTH 9 0
BBX 7 12 1 0
BITMAP
08
10
00
10
10
28
44
44
7C
82
82
82
ENDCHAR
STARTCHAR Acircumflex
ENCODING 194
SWIDTH 667 0
DWIDTH 9 0
BBX 7 12 1 0
BITMAP
10
28
00
10
10
28
44
44
7C
82
82
82
ENDCHAR
STARTCHAR Atilde
ENCODING 195
SWIDTH 667 0
DWIDTH 9 0
BBX 7 12 1 0
BITMAP
14
28
00
10
10
28
44
44
7C
82
82
82
ENDCHAR
STARTCHAR Adieresis
ENCODING 196
SWIDTH 667 0
DWIDTH 9 0
BBX 7 11 1 0
BITMAP
28
00
10
10
28
44
44
7C
82
82
82
ENDCHAR
STARTCHAR Aring
ENCODING 197
SWIDTH 667 0
DWIDTH 9 0
BBX 7 12 1 0
BITMAP
10
28
10
10
10
28
44
44
7C
82
82
82
ENDCHAR
STARTCHAR AE
ENCODING 198
SWIDTH 1000 0
DWIDTH 11 0
BBX 9 9 1 0
BITMAP
1F80
2800
2800
4800
4F80
7800
8800
8800
8F80
ENDCHAR
STARTCHAR Ccedilla
ENCODING 199
SWIDTH 722 0
DWIDTH 9 0
BBX 7 12 1 -3
BITMAP
3C
42
80
80
80
80
80
42
3C
08
08
30
ENDCHAR
STARTCHAR Egrave
ENCODING 200
SWIDTH 667 0
DWIDTH 8 0
BBX 6 12 1 0
BITMAP
20
10
00
FC
80
80
80
FC
80
80
80
FC
ENDCHAR
STARTCHAR Eacute
ENCODING 201
SWIDTH 667 0
DWIDTH 8 0
BBX 6 12 1 0
BITMAP
08
10
00
FC
80
80
80
FC
80
80
80
FC
ENDCHAR
STARTCHAR Ecircumflex
ENCODING 202
SWIDTH 667 0
DWIDTH 8 0
BBX 6 12 1 0
BITMAP
10
28
00
FC
80
80
80
FC
80
80
80
FC
ENDCHAR
STARTCHAR Edieresis
ENCODING 203
SWIDTH 667 0
DWIDTH 8 0
BBX 6 11 1 0
BITMAP
28
00
FC
80
80
80
FC
80
80
80
FC
ENDCHAR
STARTCHAR Igrave
ENCODING 204
SWIDTH 278 0
DWIDTH 3 0
BBX 2 12 0 0
BITMAP
80
40
00
40
40
40
40
40
40
40
40
40
ENDCHAR
STARTCHAR Iacute
ENCODING 205
SWIDTH 278 0
DWIDTH 3 0
BBX 2 12 1 0
BITMAP
40
80
00
80
80
80
80
80
80
80
80
80
ENDCHAR
STARTCHAR Icircumflex
ENCODING 206
SWIDTH 278 0
DWIDTH 3 0
BBX 3 12 0 0
BITMAP
40
A0
00
40
40
40
40
40
40
40
40
40
ENDCHAR
STARTCHAR Idieresis
ENCODING 207
SWIDTH 278 0
DWIDTH 3 0
BBX 3 11 0 0
BITMAP
A0
00
40
40
40
40
40
40
40
40
40
ENDCHAR
STARTCHAR Eth
ENCODING 208
SWIDTH 722 0
DWIDTH 9 0
BBX 8 9 0 0
BITMAP
7C
42
41
41
F1
41
41
42
7C
ENDCHAR
STARTCHAR Ntilde
ENCODING 209
SWIDTH 722 0
DWIDTH 9 0
BBX 7 12 1 0
BITMAP
14
28
00
82
C2
A2
A2
92
8A
8A
86
82
ENDCHAR
STARTCHAR Ograve
ENCODING 210
SWIDTH 778 0
DWIDTH 10 0
BBX 8 12 1 0
BITMAP
10
08
00
3C
42
81
81
81
81
81
42
3C
ENDCHAR
STARTCHAR Oacute
ENCODING 211
SWIDTH 778 0
DWIDTH 10 0
BBX 8 12 1 0
BITMAP
04
08
00
3C
42
81
81
81
81
81
42
3C
ENDCHAR
STARTCHAR Ocircumflex
ENCODING 212
SWIDTH 778 0
DWIDTH 10 0
BBX 8 12 1 0
BITMAP
08
14
00
3C
42
81
81
81
81
81
42
3C
ENDCHAR
STARTCHAR Otilde
ENCODING 213
SWIDTH 778 0
DWIDTH 10 0
BBX 8 12 1 0
BITMAP
14
28
00
3C
42
81
81
81
81
81
42
3C
ENDCHAR
STARTCHAR Odieresis
ENCODING 214
SWIDTH 778 0
DWIDTH 10 0
BBX 8 11 1 0
BITMAP
24
00
3C
42
81
81
81
81
81
42
3C
ENDCHAR
STARTCHAR multiply
ENCODING 215
SWIDTH 584 0
DWIDTH 7 0
BBX 5 5 1 1
BITMAP
88
50
20
50
88
ENDCHAR
STARTCHAR Oslash
ENCODING 216
SWIDTH 778 0
DWIDTH 10 0
BBX 10 11 0 -1
BITMAP
0040
1E80
2100
4280
4480
4480
4880
5080
2100
5E00
8000
ENDCHAR
STARTCHAR Ugrave
ENCODING 217
SWIDTH 722 0
DWIDTH 8 0
BBX 6 12 1 0
BITMAP
20
10
00
84
84
84
84
84
84
84
84
78
ENDCHAR
STARTCHAR Uacute
ENCODING 218
SWIDTH 722 0
DWIDTH 8 0
BBX 6 12 1 0
BITMAP
08
10
00
84
84
84
84
84
84
84
84
78
ENDCHAR
STARTCHAR Ucircumflex
ENCODING 219
SWIDTH 722 0
DWIDTH 8 0
BBX 6 12 1 0
BITMAP
10
28
00
84
84
84
84
84
84
84
84
78
ENDCHAR
STARTCHAR Udieresis
ENCODING 220
SWIDTH 722 0
DWIDTH 8 0
BBX 6 11 1 0
BITMAP
48
00
84
84
84
84
84
84
84
84
78
ENDCHAR
STARTCHAR Yacute
ENCODING 221
SWIDTH 667 0
DWIDTH 9 0
BBX 7 12 1 0
BITMAP
08
10
00
82
82
44
44
28
10
10
10
10
ENDCHAR
STARTCHAR Thorn
ENCODING 222
SWIDTH 667 0
DWIDTH 8 0
BBX 6 9 1 0
BITMAP
80
80
F8
84
84
84
F8
80
80
ENDCHAR
STARTCHAR germandbls
ENCODING 223
SWIDTH 611 0
DWIDTH 7 0
BBX 5 9 1 0
BITMAP
70
88
88
88
B0
88
88
88
B0
ENDCHAR
STARTCHAR agrave
ENCODING 224
SWIDTH 556 0
DWIDTH 7 0
BBX 6 10 1 0
BITMAP
20
10
00
70
88
08
78
88
88
74
ENDCHAR
STARTCHAR aacute
ENCODING 225
SWIDTH 556 0
DWIDTH 7 0
BBX 6 10 1 0
BITMAP
10
20
00
70
88
08
78
88
88
74
ENDCHAR
STARTCHAR acircumflex
ENCODING 226
SWIDTH 556 0
DWIDTH 7 0
BBX 6 10 1 0
BITMAP
20
50
00
70
88
08
78
88
88
74
ENDCHAR
STARTCHAR atilde
ENCODING 227
SWIDTH 556 0
DWIDTH 7 0
BBX 6 10 1 0
BITMAP
28
50
00
70
88
08
78
88
88
74
ENDCHAR
STARTCHAR adieresis
ENCODING 228
SWIDTH 556 0
DWIDTH 7 0
BBX 6 9 1 0
BITMAP
50
00
70
88
08
78
88
88
74
ENDCHAR
STARTCHAR aring
ENCODING 229
SWIDTH 556 0
DWIDTH 7 0
BBX 6 10 1 0
BITMAP
30
48
30
70
88
08
78
88
88
74
ENDCHAR
STARTCHAR ae
ENCODING 230
SWIDTH 889 0
DWIDTH 11 0
BBX 9 7 1 0
BITMAP
7700
8880
0880
7F80
8800
8880
7700
ENDCHAR
STARTCHAR ccedilla
ENCODING 231
SWIDTH 500 0
DWIDTH 7 0
BBX 5 10 1 -3
BITMAP
70
88
80
80
80
88
70
20
10
60
ENDCHAR
STARTCHAR egrave
ENCODING 232
SWIDTH 556 0
DWIDTH 7 0
BBX 5 10 1 0
BITMAP
40
20
00
70
88
88
F8
80
88
70
ENDCHAR
STARTCHAR eacute
ENCODING 233
SWIDTH 556 0
DWIDTH 7 0
BBX 5 10 1 0
BITMAP
10
20
00
70
88
88
F8
80
88
70
ENDCHAR
STARTCHAR ecircumflex
ENCODING 234
SWIDTH 556 0
DWIDTH 7 0
BBX 5 10 1 0
BITMAP
20
50
00
70
88
88
F8
80
88
70
ENDCHAR
STARTCHAR edieresis
ENCODING 235
SWIDTH 556 0
DWIDTH 7 0
BBX 5 9 1 0
BITMAP
50
00
70
88
88
F8
80
88
70
ENDCHAR
STARTCHAR igrave
ENCODING 236
SWIDTH 278 0
DWIDTH 3 0
BBX 2 10 0 0
BITMAP
80
40
00
40
40
40
40
40
40
40
ENDCHAR
STARTCHAR iacute
ENCODING 237
SWIDTH 278 0
DWIDTH 3 0
BBX 2 10 1 0
BITMAP
40
80
00
80
80
80
80
80
80
80
ENDCHAR
STARTCHAR icircumflex
ENCODING 238
SWIDTH 278 0
DWIDTH 3 0
BBX 3 10 0 0
BITMAP
40
A0
00
40
40
40
40
40
40
40
ENDCHAR
STARTCHAR idieresis
ENCODING 239
SWIDTH 278 0
DWIDTH 3 0
BBX 3 9 0 0
BITMAP
A0
00
40
40
40
40
40
40
40
ENDCHAR
STARTCHAR eth
ENCODING 240
SWIDTH 556 0
DWIDTH 7 0
BBX 5 10 1 0
BITMAP
68
30
50
08
78
88
88
88
88
70
ENDCHAR
STARTCHAR ntilde
ENCODING 241
SWIDTH 556 0
DWIDTH 7 0
BBX 5 10 1 0
BITMAP
28
50
00
B0
C8
88
88
88
88
88
ENDCHAR
STARTCHAR ograve
ENCODING 242
SWIDTH 556 0
DWIDTH 7 0
BBX 5 10 1 0
BITMAP
40
20
00
70
88
88
88
88
88
70
ENDCHAR
STARTCHAR oacute
ENCODING 243
SWIDTH 556 0
DWIDTH 7 0
BBX 5 10 1 0
BITMAP
10
20
00
70
88
88
88
88
88
70
ENDCHAR
STARTCHAR ocircumflex
ENCODING 244
SWIDTH 556 0
DWIDTH 7 0
BBX 5 10 1 0
BITMAP
20
50
00
70
88
88
88
88
88
70
ENDCHAR
STARTCHAR otilde
ENCODING 245
SWIDTH 556 0
DWIDTH 7 0
BBX 5 10 1 0
BITMAP
28
50
00
70
88
88
88
88
88
70
ENDCHAR
STARTCHAR odieresis
ENCODING 246
SWIDTH 556 0
DWIDTH 7 0
BBX 5 9 1 0
BITMAP
50
00
70
88
88
88
88
88
70
ENDCHAR
STARTCHAR divide
ENCODING 247
SWIDTH 584 0
DWIDTH 7 0
BBX 5 5 1 1
BITMAP
20
00
F8
00
20
ENDCHAR
STARTCHAR oslash
ENCODING 248
SWIDTH 611 0
DWIDTH 7 0
BBX 7 7 0 0
BITMAP
3A
44
4C
54
64
44
B8
ENDCHAR
STARTCHAR ugrave
ENCODING 249
SWIDTH 556 0
DWIDTH 7 0
BBX 5 10 1 0
BITMAP
40
20
00
88
88
88
88
88
98
68
ENDCHAR
STARTCHAR uacute
ENCODING 250
SWIDTH 556 0
DWIDTH 7 0
BBX 5 10 1 0
BITMAP
10
20
00
88
88
88
88
88
98
68
ENDCHAR
STARTCHAR ucircumflex
ENCODING 251
SWIDTH 556 0
DWIDTH 7 0
BBX 5 10 1 0
BITMAP
20
50
00
88
88
88
88
88
98
68
ENDCHAR
STARTCHAR udieresis
ENCODING 252
SWIDTH 556 0
DWIDTH 7 0
BBX 5 9 1 0
BITMAP
50
00
88
88
88
88
88
98
68
ENDCHAR
STARTCHAR yacute
ENCODING 253
SWIDTH 500 0
DWIDTH 7 0
BBX 5 13 1 -3
BITMAP
10
20
00
88
88
88
90
50
50
20
20
40
80
ENDCHAR
STARTCHAR thorn
ENCODING 254
SWIDTH 556 0
DWIDTH 7 0
BBX 5 12 1 -3
BITMAP
80
80
B0
C8
88
88
88
C8
B0
80
80
80
ENDCHAR
STARTCHAR ydieresis
ENCODING 255
SWIDTH 500 0
DWIDTH 7 0
BBX 5 12 1 -3
BITMAP
50
00
88
88
48
50
50
30
20
20
20
C0
ENDCHAR
STARTCHAR Amacron
ENCODING 256
SWIDTH 667 0
DWIDTH 9 0
BBX 7 11 1 0
BITMAP
3C
00
10
28
28
44
44
7C
82
82
82
ENDCHAR
STARTCHAR amacron
ENCODING 257
SWIDTH 556 0
DWIDTH 7 0
BBX 6 9 1 0
BITMAP
78
00
70
88
08
78
88
88
74
ENDCHAR
STARTCHAR Abreve
ENCODING 258
SWIDTH 667 0
DWIDTH 9 0
BBX 7 12 1 0
BITMAP
24
18
00
10
28
28
44
44
7C
82
82
82
ENDCHAR
STARTCHAR abreve
ENCODING 259
SWIDTH 556 0
DWIDTH 7 0
BBX 6 10 1 0
BITMAP
48
30
00
70
88
08
78
88
88
74
ENDCHAR
STARTCHAR Aogonek
ENCODING 260
SWIDTH 667 0
DWIDTH 9 0
BBX 7 12 1 -3
BITMAP
10
28
28
44
44
7C
82
82
92
20
20
18
ENDCHAR
STARTCHAR aogonek
ENCODING 261
SWIDTH 556 0
DWIDTH 7 0
BBX 6 10 1 -3
BITMAP
70
88
08
78
88
88
74
20
20
18
ENDCHAR
STARTCHAR Cacute
ENCODING 262
SWIDTH 722 0
DWIDTH 9 0
BBX 7 12 1 0
BITMAP
08
10
00
3C
42
80
80
80
80
80
42
3C
ENDCHAR
STARTCHAR cacute
ENCODING 263
SWIDTH 500 0
DWIDTH 7 0
BBX 5 10 1 0
BITMAP
10
20
00
70
88
80
80
80
88
70
ENDCHAR
STARTCHAR Ccircumflex
ENCODING 264
SWIDTH 722 0
DWIDTH 9 0
BBX 7 12 1 0
BITMAP
10
28
00
3C
42
80
80
80
80
80
42
3C
ENDCHAR
STARTCHAR ccircumflex
ENCODING 265
SWIDTH 500 0
DWIDTH 7 0
BBX 5 10 1 0
BITMAP
20
50
00
70
88
80
80
80
88
70
ENDCHAR
STARTCHAR Cdotaccent
ENCODING 266
SWIDTH 722 0
DWIDTH 9 0
BBX 7 11 1 0
BITMAP
10
00
3C
42
80
80
80
80
80
42
3C
ENDCHAR
STARTCHAR cdotaccent
ENCODING 267
SWIDTH 500 0
DWIDTH 7 0
BBX 5 9 1 0
BITMAP
20
00
70
88
80
80
80
88
70
ENDCHAR
STARTCHAR Ccaron
ENCODING 268
SWIDTH 722 0
DWIDTH 9 0
BBX 7 12 1 0
BITMAP
28
10
00
3C
42
80
80
80
80
80
42
3C
ENDCHAR
STARTCHAR ccaron
ENCODING 269
SWIDTH 500 0
DWIDTH 7 0
BBX 5 10 1 0
BITMAP
50
20
00
70
88
80
80
80
88
70
ENDCHAR
STARTCHAR Dcaron
ENCODING 270
SWIDTH 722 0
DWIDTH 9 0
BBX 7 12 1 0
BITMAP
28
10
00
F8
84
82
82
82
82
82
84
F8
ENDCHAR
STARTCHAR dcaron
ENCODING 271
SWIDTH 750 0
DWIDTH 10 0
BBX 9 9 1 0
BITMAP
0980
0880
6900
9800
8800
8800
8800
9800
6800
ENDCHAR
STARTCHAR Dcroat
ENCODING 272
SWIDTH 722 0
DWIDTH 9 0
BBX 8 9 0 0
BITMAP
7C
42
41
41
F1
41
41
42
7C
ENDCHAR
STARTCHAR dcroat
ENCODING 273
SWIDTH 556 0
DWIDTH 7 0
BBX 5 9 1 0
BITMAP
08
38
68
98
88
88
88
98
68
ENDCHAR
STARTCHAR Emacron
ENCODING 274
SWIDTH 667 0
DWIDTH 8 0
BBX 6 11 1 0
BITMAP
78
00
FC
80
80
80
FC
80
80
80
FC
ENDCHAR
STARTCHAR emacron
ENCODING 275
SWIDTH 556 0
DWIDTH 7 0
BBX 5 9 1 0
BITMAP
78
00
70
88
88
F8
80
88
70
ENDCHAR
STARTCHAR Ebreve
ENCODING 276
SWIDTH 667 0
DWIDTH 8 0
BBX 6 12 1 0
BITMAP
48
30
00
FC
80
80
80
FC
80
80
80
FC
ENDCHAR
STARTCHAR ebreve
ENCODING 277
SWIDTH 556 0
DWIDTH 7 0
BBX 5 10 1 0
BITMAP
48
30
00
70
88
88
F8
80
88
70
ENDCHAR
STARTCHAR Edotaccent
ENCODING 278
SWIDTH 667 0
DWIDTH 8 0
BBX 6 11 1 0
BITMAP
20
00
FC
80
80
80
FC
80
80
80
FC
ENDCHAR
STARTCHAR edotaccent
ENCODING 279
SWIDTH 556 0
DWIDTH 7 0
BBX 5 9 1 0
BITMAP
20
00
70
88
88
F8
80
88
70
ENDCHAR
STARTCHAR Eogonek
ENCODING 280
SWIDTH 667 0
DWIDTH 8 0
BBX 6 12 1 -3
BITMAP
FC
80
80
80
FC
80
80
80
FC
40
40
30
ENDCHAR
STARTCHAR eogonek
ENCODING 281
SWIDTH 556 0
DWIDTH 7 0
BBX 5 10 1 -3
BITMAP
70
88
88
F8
80
88
70
40
40
30
ENDCHAR
STARTCHAR Ecaron
ENCODING 282
SWIDTH 667 0
DWIDTH 8 0
BBX 6 12 1 0
BITMAP
50
20
00
FC
80
80
80
FC
80
80
80
FC
ENDCHAR
STARTCHAR ecaron
ENCODING 283
SWIDTH 556 0
DWIDTH 7 0
BBX 5 10 1 0
BITMAP
50
20
00
70
88
88
F8
80
88
70
ENDCHAR
STARTCHAR Gcircumflex
ENCODING 284
SWIDTH 778 0
DWIDTH 9 0
BBX 7 12 1 0
BITMAP
10
28
00
3C
42
80
80
8E
82
82
46
3A
ENDCHAR
STARTCHAR gcircumflex
ENCODING 285
SWIDTH 556 0
DWIDTH 7 0
BBX 5 13 1 -3
BITMAP
20
50
00
68
98
88
88
88
98
68
08
88
70
ENDCHAR
STARTCHAR Gbreve
ENCODING 286
SWIDTH 778 0
DWIDTH 9 0
BBX 7 12 1 0
BITMAP
24
18
00
3C
42
80
80
8E
82
82
46
3A
ENDCHAR
STARTCHAR gbreve
ENCODING 287
SWIDTH 556 0
DWIDTH 7 0
BBX 5 13 1 -3
BITMAP
48
30
00
68
98
88
88
88
98
68
08
88
70
ENDCHAR
STARTCHAR Gdotaccent
ENCODING 288
SWIDTH 778 0
DWIDTH 9 0
BBX 7 11 1 0
BITMAP
10
00
3C
42
80
80
8E
82
82
46
3A
ENDCHAR
STARTCHAR gdotaccent
ENCODING 289
SWIDTH 556 0
DWIDTH 7 0
BBX 5 12 1 -3
BITMAP
20
00
68
98
88
88
88
98
68
08
88
70
ENDCHAR
STARTCHAR Gcommaaccent
ENCODING 290
SWIDTH 778 0
DWIDTH 9 0
BBX 7 13 1 -4
BITMAP
3C
42
80
80
8E
82
82
46
3A
00
08
08
10
ENDCHAR
STARTCHAR gcommaaccent
ENCODING 291
SWIDTH 556 0
DWIDTH 7 0
BBX 5 14 1 -3
BITMAP
10
20
30
00
68
98
88
88
88
98
68
08
88
70
ENDCHAR
STARTCHAR Hcircumflex
ENCODING 292
SWIDTH 722 0
DWIDTH 9 0
BBX 7 12 1 0
BITMAP
10
28
00
82
82
82
82
FE
82
82
82
82
ENDCHAR
STARTCHAR hcircumflex
ENCODING 293
SWIDTH 556 0
DWIDTH 7 0
BBX 5 12 1 0
BITMAP
40
A0
00
80
80
B0
C8
88
88
88
88
88
ENDCHAR
STARTCHAR Hbar
ENCODING 294
SWIDTH 722 0
DWIDTH 9 0
BBX 7 9 1 0
BITMAP
82
FE
82
82
FE
82
82
82
82
ENDCHAR
STARTCHAR hbar
ENCODING 295
SWIDTH 556 0
DWIDTH 7 0
BBX 5 9 1 0
BITMAP
80
E0
B0
C8
88
88
88
88
88
ENDCHAR
STARTCHAR Itilde
ENCODING 296
SWIDTH 278 0
DWIDTH 3 0
BBX 4 12 0 0
BITMAP
50
A0
00
40
40
40
40
40
40
40
40
40
ENDCHAR
STARTCHAR itilde
ENCODING 297
SWIDTH 278 0
DWIDTH 3 0
BBX 4 10 0 0
BITMAP
50
A0
00
40
40
40
40
40
40
40
ENDCHAR
STARTCHAR Imacron
ENCODING 298
SWIDTH 278 0
DWIDTH 3 0
BBX 4 11 0 0
BITMAP
F0
00
40
40
40
40
40
40
40
40
40
ENDCHAR
STARTCHAR imacron
ENCODING 299
SWIDTH 278 0
DWIDTH 3 0
BBX 4 9 0 0
BITMAP
F0
00
40
40
40
40
40
40
40
ENDCHAR
STARTCHAR Ibreve
ENCODING 300
SWIDTH 278 0
DWIDTH 3 0
BBX 4 12 0 0
BITMAP
90
60
00
40
40
40
40
40
40
40
40
40
ENDCHAR
STARTCHAR ibreve
ENCODING 301
SWIDTH 278 0
DWIDTH 3 0
BBX 4 10 0 0
BITMAP
90
60
00
40
40
40
40
40
40
40
ENDCHAR
STARTCHAR Iogonek
ENCODING 302
SWIDTH 278 0
DWIDTH 3 0
BBX 3 12 0 -3
BITMAP
40
40
40
40
40
40
40
40
40
80
80
60
ENDCHAR
STARTCHAR iogonek
ENCODING 303
SWIDTH 222 0
DWIDTH 3 0
BBX 3 12 0 -3
BITMAP
40
00
40
40
40
40
40
40
40
80
80
60
ENDCHAR
STARTCHAR Idotaccent
ENCODING 304
SWIDTH 278 0
DWIDTH 3 0
BBX 1 11 1 0
BITMAP
80
00
80
80
80
80
80
80
80
80
80
ENDCHAR
STARTCHAR dotlessi
ENCODING 305
SWIDTH 278 0
DWIDTH 3 0
BBX 1 7 1 0
BITMAP
80
80
80
80
80
80
80
ENDCHAR
STARTCHAR IJ
ENCODING 306
SWIDTH 764 0
DWIDTH 10 0
BBX 8 9 1 0
BITMAP
81
81
81
81
81
81
91
91
8E
ENDCHAR
STARTCHAR ij
ENCODING 307
SWIDTH 433 0
DWIDTH 6 0
BBX 4 12 1 -3
BITMAP
90
00
90
90
90
90
90
90
90
10
10
20
ENDCHAR
STARTCHAR Jcircumflex
ENCODING 308
SWIDTH 500 0
DWIDTH 7 0
BBX 5 12 1 0
BITMAP
10
28
00
08
08
08
08
08
08
88
88
70
ENDCHAR
STARTCHAR jcircumflex
ENCODING 309
SWIDTH 222 0
DWIDTH 3 0
BBX 3 13 0 -3
BITMAP
40
A0
00
40
40
40
40
40
40
40
40
40
80
ENDCHAR
STARTCHAR Kcommaaccent
ENCODING 310
SWIDTH 667 0
DWIDTH 8 0
BBX 7 13 1 -4
BITMAP
84
88
90
A0
E0
90
88
84
82
00
10
10
20
ENDCHAR
STARTCHAR kcommaaccent
ENCODING 311
SWIDTH 500 0
DWIDTH 6 0
BBX 5 13 1 -4
BITMAP
80
80
90
A0
C0
C0
A0
90
88
00
20
20
40
ENDCHAR
STARTCHAR kgreenlandic
ENCODING 312
SWIDTH 500 0
DWIDTH 6 0
BBX 5 7 1 0
BITMAP
90
A0
C0
C0
A0
90
88
ENDCHAR
STARTCHAR Lacute
ENCODING 313
SWIDTH 556 0
DWIDTH 7 0
BBX 5 12 1 0
BITMAP
20
40
00
80
80
80
80
80
80
80
80
F8
ENDCHAR
STARTCHAR lacute
ENCODING 314
SWIDTH 222 0
DWIDTH 3 0
BBX 2 12 1 0
BITMAP
40
80
00
80
80
80
80
80
80
80
80
80
ENDCHAR
STARTCHAR Lcommaaccent
ENCODING 315
SWIDTH 556 0
DWIDTH 7 0
BBX 5 13 1 -4
BITMAP
80
80
80
80
80
80
80
80
F8
00
20
20
40
ENDCHAR
STARTCHAR lcommaaccent
ENCODING 316
SWIDTH 222 0
DWIDTH 3 0
BBX 2 13 0 -4
BITMAP
40
40
40
40
40
40
40
40
40
00
40
40
80
ENDCHAR
STARTCHAR Lcaron
ENCODING 317
SWIDTH 750 0
DWIDTH 10 0
BBX 9 9 1 0
BITMAP
8180
8080
8100
8000
8000
8000
8000
8000
F800
ENDCHAR
STARTCHAR lcaron
ENCODING 318
SWIDTH 433 0
DWIDTH 6 0
BBX 5 9 1 0
BITMAP
98
88
90
80
80
80
80
80
80
ENDCHAR
STARTCHAR Ldot
ENCODING 319
SWIDTH 806 0
DWIDTH 10 0
BBX 8 9 1 0
BITMAP
80
80
80
80
80
81
80
80
F8
ENDCHAR
STARTCHAR ldot
ENCODING 320
SWIDTH 489 0
DWIDTH 6 0
BBX 4 9 1 0
BITMAP
80
80
80
80
80
90
80
80
80
ENDCHAR
STARTCHAR Lslash
ENCODING 321
SWIDTH 556 0
DWIDTH 7 0
BBX 6 9 0 0
BITMAP
40
40
50
60
C0
40
40
40
7C
ENDCHAR
STARTCHAR lslash
ENCODING 322
SWIDTH 222 0
DWIDTH 3 0
BBX 3 9 0 0
BITMAP
40
40
40
60
C0
40
40
40
40
ENDCHAR
STARTCHAR Nacute
ENCODING 323
SWIDTH 722 0
DWIDTH 9 0
BBX 7 12 1 0
BITMAP
08
10
00
82
C2
A2
A2
92
8A
8A
86
82
ENDCHAR
STARTCHAR nacute
ENCODING 324
SWIDTH 556 0
DWIDTH 7 0
BBX 5 10 1 0
BITMAP
10
20
00
B0
C8
88
88
88
88
88
ENDCHAR
STARTCHAR Ncommaaccent
ENCODING 325
SWIDTH 722 0
DWIDTH 9 0
BBX 7 13 1 -4
BITMAP
82
C2
A2
A2
92
8A
8A
86
82
00
10
10
20
ENDCHAR
STARTCHAR ncommaaccent
ENCODING 326
SWIDTH 556 0
DWIDTH 7 0
BBX 5 11 1 -4
BITMAP
B0
C8
88
88
88
88
88
00
20
20
40
ENDCHAR
STARTCHAR Ncaron
ENCODING 327
SWIDTH 722 0
DWIDTH 9 0
BBX 7 12 1 0
BITMAP
28
10
00
82
C2
A2
A2
92
8A
8A
86
82
ENDCHAR
STARTCHAR ncaron
ENCODING 328
SWIDTH 556 0
DWIDTH 7 0
BBX 5 10 1 0
BITMAP
50
20
00
B0
C8
88
88
88
88
88
ENDCHAR
STARTCHAR napostrophe
ENCODING 329
SWIDTH 767 0
DWIDTH 10 0
BBX 8 9 1 0
BITMAP
C0
40
96
19
11
11
11
11
11
ENDCHAR
STARTCHAR Eng
ENCODING 330
SWIDTH 722 0
DWIDTH 9 0
BBX 7 12 1 -3
BITMAP
82
C2
A2
A2
92
8A
8A
86
82
02
02
04
ENDCHAR
STARTCHAR eng
ENCODING 331
SWIDTH 556 0
DWIDTH 7 0
BBX 5 10 1 -3
BITMAP
B0
C8
88
88
88
88
88
08
08
10
ENDCHAR
STARTCHAR Omacron
ENCODING 332
SWIDTH 778 0
DWIDTH 10 0
BBX 8 11 1 0
BITMAP
3C
00
3C
42
81
81
81
81
81
42
3C
ENDCHAR
STARTCHAR omacron
ENCODING 333
SWIDTH 556 0
DWIDTH 7 0
BBX 5 9 1 0
BITMAP
78
00
70
88
88
88
88
88
70
ENDCHAR
STARTCHAR Obreve
ENCODING 334
SWIDTH 778 0
DWIDTH 10 0
BBX 8 12 1 0
BITMAP
24
18
00
3C
42
81
81
81
81
81
42
3C
ENDCHAR
STARTCHAR obreve
ENCODING 335
SWIDTH 556 0
DWIDTH 7 0
BBX 5 10 1 0
BITMAP
48
30
00
70
88
88
88
88
88
70
ENDCHAR
STARTCHAR Ohungarumlaut
ENCODING 336
SWIDTH 778 0
DWIDTH 10 0
BBX 8 12 1 0
BITMAP
14
28
00
3C
42
81
81
81
81
81
42
3C
ENDCHAR
STARTCHAR ohungarumlaut
ENCODING 337
SWIDTH 556 0
DWIDTH 7 0
BBX 5 10 1 0
BITMAP
28
50
00
70
88
88
88
88
88
70
ENDCHAR
STARTCHAR OE
ENCODING 338
SWIDTH 1000 0
DWIDTH 12 0
BBX 10 9 1 0
BITMAP
3FC0
4400
8400
8400
87C0
8400
8400
4400
3FC0
ENDCHAR
STARTCHAR oe
ENCODING 339
SWIDTH 944 0
DWIDTH 11 0
BBX 9 7 1 0
BITMAP
7700
8880
8880
8F80
8800
8880
7700
ENDCHAR
STARTCHAR Racute
ENCODING 340
SWIDTH 722 0
DWIDTH 8 0
BBX 6 12 1 0
BITMAP
10
20
00
F8
84
84
84
F8
88
84
84
84
ENDCHAR
STARTCHAR racute
ENCODING 341
SWIDTH 333 0
DWIDTH 4 0
BBX 3 10 1 0
BITMAP
20
40
00
A0
C0
80
80
80
80
80
ENDCHAR
STARTCHAR Rcommaaccent
ENCODING 342
SWIDTH 722 0
DWIDTH 8 0
BBX 6 13 1 -4
BITMAP
F8
84
84
84
F8
88
84
84
84
00
10
10
20
ENDCHAR
STARTCHAR rcommaaccent
ENCODING 343
SWIDTH 333 0
DWIDTH 4 0
BBX 3 11 1 -4
BITMAP
A0
C0
80
80
80
80
80
00
40
40
80
ENDCHAR
STARTCHAR Rcaron
ENCODING 344
SWIDTH 722 0
DWIDTH 8 0
BBX 6 12 1 0
BITMAP
50
20
00
F8
84
84
84
F8
88
84
84
84
ENDCHAR
STARTCHAR rcaron
ENCODING 345
SWIDTH 333 0
DWIDTH 4 0
BBX 3 10 1 0
BITMAP
A0
40
00
A0
C0
80
80
80
80
80
ENDCHAR
STARTCHAR Sacute
ENCODING 346
SWIDTH 667 0
DWIDTH 8 0
BBX 6 12 1 0
BITMAP
10
20
00
78
84
80
60
18
04
84
84
78
ENDCHAR
STARTCHAR sacute
ENCODING 347
SWIDTH 500 0
DWIDTH 6 0
BBX 4 10 1 0
BITMAP
20
40
00
60
90
80
60
10
90
60
ENDCHAR
STARTCHAR Scircumflex
ENCODING 348
SWIDTH 667 0
DWIDTH 8 0
BBX 6 12 1 0
BITMAP
20
50
00
78
84
80
60
18
04
84
84
78
ENDCHAR
STARTCHAR scircumflex
ENCODING 349
SWIDTH 500 0
DWIDTH 6 0
BBX 4 10 1 0
BITMAP
20
50
00
60
90
80
60
10
90
60
ENDCHAR
STARTCHAR Scedilla
ENCODING 350
SWIDTH 667 0
DWIDTH 8 0
BBX 6 12 1 -3
BITMAP
78
84
80
60
18
04
84
84
78
10
10
60
ENDCHAR
STARTCHAR scedilla
ENCODING 351
SWIDTH 500 0
DWIDTH 6 0
BBX 4 10 1 -3
BITMAP
60
90
80
60
10
90
60
20
20
C0
ENDCHAR
STARTCHAR Scaron
ENCODING 352
SWIDTH 667 0
DWIDTH 8 0
BBX 6 12 1 0
BITMAP
28
10
00
78
84
80
60
18
04
84
84
78
ENDCHAR
STARTCHAR scaron
ENCODING 353
SWIDTH 500 0
DWIDTH 6 0
BBX 4 10 1 0
BITMAP
A0
40
00
60
90
80
60
10
90
60
ENDCHAR
STARTCHAR Tcommaaccent
ENCODING 354
SWIDTH 611 0
DWIDTH 7 0
BBX 7 12 0 -3
BITMAP
FE
10
10
10
10
10
10
10
10
08
08
30
ENDCHAR
STARTCHAR tcommaaccent
ENCODING 355
SWIDTH 278 0
DWIDTH 3 0
BBX 3 12 0 -3
BITMAP
40
40
E0
40
40
40
40
40
60
20
20
C0
ENDCHAR
STARTCHAR Tcaron
ENCODING 356
SWIDTH 611 0
DWIDTH 7 0
BBX 7 12 0 0
BITMAP
28
10
00
FE
10
10
10
10
10
10
10
10
ENDCHAR
STARTCHAR tcaron
ENCODING 357
SWIDTH 486 0
DWIDTH 6 0
BBX 6 9 0 0
BITMAP
4C
44
E8
40
40
40
40
40
60
ENDCHAR
STARTCHAR Tbar
ENCODING 358
SWIDTH 611 0
DWIDTH 7 0
BBX 7 9 0 0
BITMAP
FE
10
10
10
38
10
10
10
10
ENDCHAR
STARTCHAR tbar
ENCODING 359
SWIDTH 278 0
DWIDTH 3 0
BBX 3 9 0 0
BITMAP
40
40
E0
40
40
E0
40
40
60
ENDCHAR
STARTCHAR Utilde
ENCODING 360
SWIDTH 722 0
DWIDTH 8 0
BBX 6 12 1 0
BITMAP
28
50
00
84
84
84
84
84
84
84
84
78
ENDCHAR
STARTCHAR utilde
ENCODING 361
SWIDTH 556 0
DWIDTH 7 0
BBX 5 10 1 0
BITMAP
28
50
00
88
88
88
88
88
98
68
ENDCHAR
STARTCHAR Umacron
ENCODING 362
SWIDTH 722 0
DWIDTH 8 0
BBX 6 11 1 0
BITMAP
78
00
84
84
84
84
84
84
84
84
78
ENDCHAR
STARTCHAR umacron
ENCODING 363
SWIDTH 556 0
DWIDTH 7 0
BBX 5 9 1 0
BITMAP
78
00
88
88
88
88
88
98
68
ENDCHAR
STARTCHAR Ubreve
ENCODING 364
SWIDTH 722 0
DWIDTH 8 0
BBX 6 12 1 0
BITMAP
48
30
00
84
84
84
84
84
84
84
84
78
ENDCHAR
STARTCHAR ubreve
ENCODING 365
SWIDTH 556 0
DWIDTH 7 0
BBX 5 10 1 0
BITMAP
48
30
00
88
88
88
88
88
98
68
ENDCHAR
STARTCHAR Uring
ENCODING 366
SWIDTH 722 0
DWIDTH 8 0
BBX 6 13 1 0
BITMAP
30
48
30
00
84
84
84
84
84
84
84
84
78
ENDCHAR
STARTCHAR uring
ENCODING 367
SWIDTH 556 0
DWIDTH 7 0
BBX 5 11 1 0
BITMAP
30
48
30
00
88
88
88
88
88
98
68
ENDCHAR
STARTCHAR Uhungarumlaut
ENCODING 368
SWIDTH 722 0
DWIDTH 8 0
BBX 6 12 1 0
BITMAP
28
50
00
84
84
84
84
84
84
84
84
78
ENDCHAR
STARTCHAR uhungarumlaut
ENCODING 369
SWIDTH 556 0
DWIDTH 7 0
BBX 5 10 1 0
BITMAP
28
50
00
88
88
88
88
88
98
68
ENDCHAR
STARTCHAR Uogonek
ENCODING 370
SWIDTH 722 0
DWIDTH 8 0
BBX 6 12 1 -3
BITMAP
84
84
84
84
84
84
84
84
78
20
20
18
ENDCHAR
STARTCHAR uogonek
ENCODING 371
SWIDTH 556 0
DWIDTH 7 0
BBX 5 10 1 -3
BITMAP
88
88
88
88
88
98
78
20
20
18
ENDCHAR
STARTCHAR Wcircumflex
ENCODING 372
SWIDTH 944 0
DWIDTH 11 0
BBX 9 12 1 0
BITMAP
0800
1400
0000
8880
8880
8880
4900
5500
5500
2200
2200
2200
ENDCHAR
STARTCHAR wcircumflex
ENCODING 373
SWIDTH 722 0
DWIDTH 9 0
BBX 9 10 0 0
BITMAP
0800
1400
0000
8880
8880
4900
4900
5500
2200
2200
ENDCHAR
STARTCHAR Ycircumflex
ENCODING 374
SWIDTH 667 0
DWIDTH 9 0
BBX 7 12 1 0
BITMAP
10
28
00
82
82
44
44
28
10
10
10
10
ENDCHAR
STARTCHAR ycircumflex
ENCODING 375
SWIDTH 500 0
DWIDTH 7 0
BBX 5 13 1 -3
BITMAP
20
50
00
88
88
88
90
50
50
20
20
40
80
ENDCHAR
STARTCHAR Ydieresis
ENCODING 376
SWIDTH 667 0
DWIDTH 9 0
BBX 7 11 1 0
BITMAP
28
00
82
82
44
44
28
10
10
10
10
ENDCHAR
STARTCHAR Zacute
ENCODING 377
SWIDTH 611 0
DWIDTH 9 0
BBX 7 12 1 0
BITMAP
08
10
00
FE
02
04
08
10
20
40
80
FE
ENDCHAR
STARTCHAR zacute
ENCODING 378
SWIDTH 500 0
DWIDTH 6 0
BBX 4 10 1 0
BITMAP
10
20
00
F0
10
20
40
40
80
F0
ENDCHAR
STARTCHAR Zdotaccent
ENCODING 379
SWIDTH 611 0
DWIDTH 9 0
BBX 7 11 1 0
BITMAP
10
00
FE
02
04
08
10
20
40
80
FE
ENDCHAR
STARTCHAR zdotaccent
ENCODING 380
SWIDTH 500 0
DWIDTH 6 0
BBX 4 9 1 0
BITMAP
20
00
F0
10
20
40
40
80
F0
ENDCHAR
STARTCHAR Zcaron
ENCODING 381
SWIDTH 611 0
DWIDTH 9 0
BBX 7 12 1 0
BITMAP
28
10
00
FE
02
04
08
10
20
40
80
FE
ENDCHAR
STARTCHAR zcaron
ENCODING 382
SWIDTH 500 0
DWIDTH 6 0
BBX 5 10 0 0
BITMAP
50
20
00
F8
08
10
20
40
80
F8
ENDCHAR
STARTCHAR uni0186
ENCODING 390
SWIDTH 722 0
DWIDTH 9 0
BBX 7 9 1 0
BITMAP
78
84
02
02
02
02
02
84
78
ENDCHAR
STARTCHAR uni0189
ENCODING 393
SWIDTH 722 0
DWIDTH 9 0
BBX 8 9 0 0
BITMAP
7C
42
41
41
F1
41
41
42
7C
ENDCHAR
STARTCHAR uni018E
ENCODING 398
SWIDTH 667 0
DWIDTH 8 0
BBX 6 9 1 0
BITMAP
FC
04
04
04
FC
04
04
04
FC
ENDCHAR
STARTCHAR florin
ENCODING 402
SWIDTH 556 0
DWIDTH 6 0
BBX 4 11 1 -2
BITMAP
30
40
40
E0
40
40
40
40
40
40
80
ENDCHAR
STARTCHAR uni0197
ENCODING 407
SWIDTH 278 0
DWIDTH 3 0
BBX 3 9 0 0
BITMAP
40
40
40
40
E0
40
40
40
40
ENDCHAR
STARTCHAR uni019A
ENCODING 410
SWIDTH 222 0
DWIDTH 3 0
BBX 3 9 0 0
BITMAP
40
40
40
40
E0
40
40
40
40
ENDCHAR
STARTCHAR uni019D
ENCODING 413
SWIDTH 722 0
DWIDTH 9 0
BBX 8 12 0 -3
BITMAP
41
61
51
51
49
45
45
43
41
40
40
80
ENDCHAR
STARTCHAR uni019F
ENCODING 415
SWIDTH 778 0
DWIDTH 10 0
BBX 8 9 1 0
BITMAP
3C
42
81
81
FF
81
81
42
3C
ENDCHAR
STARTCHAR Ohorn
ENCODING 416
SWIDTH 778 0
DWIDTH 10 0
BBX 10 9 1 0
BITMAP
3CC0
4240
8180
8100
8100
8100
8100
4200
3C00
ENDCHAR
STARTCHAR ohorn
ENCODING 417
SWIDTH 556 0
DWIDTH 7 0
BBX 7 7 1 0
BITMAP
76
8A
8C
88
88
88
70
ENDCHAR
STARTCHAR uni01A7
ENCODING 423
SWIDTH 667 0
DWIDTH 8 0
BBX 6 9 1 0
BITMAP
78
84
04
18
60
80
84
84
78
ENDCHAR
STARTCHAR uni01A8
ENCODING 424
SWIDTH 500 0
DWIDTH 6 0
BBX 4 7 1 0
BITMAP
60
90
10
60
80
90
60
ENDCHAR
STARTCHAR uni01AE
ENCODING 430
SWIDTH 611 0
DWIDTH 7 0
BBX 7 12 0 -3
BITMAP
FE
10
10
10
10
10
10
10
10
10
10
08
ENDCHAR
STARTCHAR Uhorn
ENCODING 431
SWIDTH 722 0
DWIDTH 8 0
BBX 8 9 1 0
BITMAP
87
85
86
84
84
84
84
84
78
ENDCHAR
STARTCHAR uhorn
ENCODING 432
SWIDTH 556 0
DWIDTH 7 0
BBX 7 7 1 0
BITMAP
8E
8A
8C
88
88
98
68
ENDCHAR
STARTCHAR uni01B5
ENCODING 437
SWIDTH 611 0
DWIDTH 9 0
BBX 7 9 1 0
BITMAP
FE
02
04
08
38
20
40
80
FE
ENDCHAR
STARTCHAR uni01B6
ENCODING 438
SWIDTH 500 0
DWIDTH 6 0
BBX 4 7 1 0
BITMAP
F0
10
20
70
40
80
F0
ENDCHAR
STARTCHAR uni01BB
ENCODING 443
SWIDTH 556 0
DWIDTH 7 0
BBX 5 9 1 0
BITMAP
70
88
08
10
F8
40
80
80
F8
ENDCHAR
STARTCHAR uni01BC
ENCODING 444
SWIDTH 556 0
DWIDTH 7 0
BBX 5 9 1 0
BITMAP
F8
80
80
F0
08
08
88
88
70
ENDCHAR
STARTCHAR uni01C0
ENCODING 448
SWIDTH 260 0
DWIDTH 3 0
BBX 1 12 1 -3
BITMAP
80
80
80
80
80
80
80
80
80
80
80
80
ENDCHAR
STARTCHAR uni01C2
ENCODING 450
SWIDTH 584 0
DWIDTH 7 0
BBX 5 12 1 -2
BITMAP
20
20
20
20
20
F8
20
F8
20
20
20
20
ENDCHAR
STARTCHAR uni01C3
ENCODING 451
SWIDTH 278 0
DWIDTH 3 0
BBX 1 9 1 0
BITMAP
80
80
80
80
80
80
80
00
80
ENDCHAR
STARTCHAR uni01CD
ENCODING 461
SWIDTH 667 0
DWIDTH 9 0
BBX 7 12 1 0
BITMAP
28
10
00
10
28
28
44
44
7C
82
82
82
ENDCHAR
STARTCHAR uni01CE
ENCODING 462
SWIDTH 556 0
DWIDTH 7 0
BBX 6 10 1 0
BITMAP
50
20
00
70
88
08
78
88
88
74
ENDCHAR
STARTCHAR uni01CF
ENCODING 463
SWIDTH 278 0
DWIDTH 3 0
BBX 3 12 0 0
BITMAP
A0
40
00
40
40
40
40
40
40
40
40
40
ENDCHAR
STARTCHAR uni01D0
ENCODING 464
SWIDTH 278 0
DWIDTH 3 0
BBX 3 10 0 0
BITMAP
A0
40
00
40
40
40
40
40
40
40
ENDCHAR
STARTCHAR uni01D1
ENCODING 465
SWIDTH 778 0
DWIDTH 10 0
BBX 8 12 1 0
BITMAP
14
08
00
3C
42
81
81
81
81
81
42
3C
ENDCHAR
STARTCHAR uni01D2
ENCODING 466
SWIDTH 556 0
DWIDTH 7 0
BBX 5 10 1 0
BITMAP
50
20
00
70
88
88
88
88
88
70
ENDCHAR
STARTCHAR uni01D3
ENCODING 467
SWIDTH 722 0
DWIDTH 8 0
BBX 6 12 1 0
BITMAP
28
10
00
84
84
84
84
84
84
84
84
78
ENDCHAR
STARTCHAR uni01D4
ENCODING 468
SWIDTH 556 0
DWIDTH 7 0
BBX 5 10 1 0
BITMAP
50
20
00
88
88
88
88
88
98
68
ENDCHAR
STARTCHAR uni01D5
ENCODING 469
SWIDTH 722 0
DWIDTH 8 0
BBX 6 13 1 0
BITMAP
78
00
48
00
84
84
84
84
84
84
84
84
78
ENDCHAR
STARTCHAR uni01D6
ENCODING 470
SWIDTH 556 0
DWIDTH 7 0
BBX 5 11 1 0
BITMAP
78
00
50
00
88
88
88
88
88
98
68
ENDCHAR
STARTCHAR uni01D7
ENCODING 471
SWIDTH 722 0
DWIDTH 8 0
BBX 6 14 1 0
BITMAP
10
20
00
48
00
84
84
84
84
84
84
84
84
78
ENDCHAR
STARTCHAR uni01D8
ENCODING 472
SWIDTH 556 0
DWIDTH 7 0
BBX 5 12 1 0
BITMAP
10
20
00
50
00
88
88
88
88
88
98
68
ENDCHAR
STARTCHAR uni01D9
ENCODING 473
SWIDTH 722 0
DWIDTH 8 0
BBX 6 14 1 0
BITMAP
28
10
00
48
00
84
84
84
84
84
84
84
84
78
ENDCHAR
STARTCHAR uni01DA
ENCODING 474
SWIDTH 556 0
DWIDTH 7 0
BBX 5 12 1 0
BITMAP
50
20
00
50
00
88
88
88
88
88
98
68
ENDCHAR
STARTCHAR uni01DB
ENCODING 475
SWIDTH 722 0
DWIDTH 8 0
BBX 6 14 1 0
BITMAP
20
10
00
48
00
84
84
84
84
84
84
84
84
78
ENDCHAR
STARTCHAR uni01DC
ENCODING 476
SWIDTH 556 0
DWIDTH 7 0
BBX 5 12 1 0
BITMAP
40
20
00
50
00
88
88
88
88
88
98
68
ENDCHAR
STARTCHAR uni01DD
ENCODING 477
SWIDTH 556 0
DWIDTH 7 0
BBX 5 7 1 0
BITMAP
70
88
08
F8
88
88
70
ENDCHAR
STARTCHAR uni01DE
ENCODING 478
SWIDTH 667 0
DWIDTH 9 0
BBX 7 13 1 0
BITMAP
3C
00
28
00
10
10
28
44
44
7C
82
82
82
ENDCHAR
STARTCHAR uni01DF
ENCODING 479
SWIDTH 556 0
DWIDTH 7 0
BBX 6 11 1 0
BITMAP
78
00
50
00
70
88
08
78
88
88
74
ENDCHAR
STARTCHAR uni01E0
ENCODING 480
SWIDTH 667 0
DWIDTH 9 0
BBX 7 13 1 0
BITMAP
3C
00
10
00
10
28
28
44
44
7C
82
82
82
ENDCHAR
STARTCHAR uni01E1
ENCODING 481
SWIDTH 556 0
DWIDTH 7 0
BBX 6 11 1 0
BITMAP
78
00
20
00
70
88
08
78
88
88
74
ENDCHAR
STARTCHAR uni01E2
ENCODING 482
SWIDTH 1000 0
DWIDTH 11 0
BBX 9 11 1 0
BITMAP
1E00
0000
1F80
2800
2800
4800
4F80
7800
8800
8800
8F80
ENDCHAR
STARTCHAR uni01E3
ENCODING 483
SWIDTH 889 0
DWIDTH 11 0
BBX 9 9 1 0
BITMAP
1E00
0000
7700
8880
0880
7F80
8800
8880
7700
ENDCHAR
STARTCHAR uni01E4
ENCODING 484
SWIDTH 778 0
DWIDTH 9 0
BBX 7 9 1 0
BITMAP
3C
42
80
80
8E
8E
82
46
3A
ENDCHAR
STARTCHAR uni01E5
ENCODING 485
SWIDTH 556 0
DWIDTH 7 0
BBX 5 10 1 -3
BITMAP
68
98
88
88
88
98
68
F8
88
70
ENDCHAR
STARTCHAR Gcaron
ENCODING 486
SWIDTH 778 0
DWIDTH 9 0
BBX 7 12 1 0
BITMAP
28
10
00
3C
42
80
80
8E
82
82
46
3A
ENDCHAR
STARTCHAR gcaron
ENCODING 487
SWIDTH 556 0
DWIDTH 7 0
BBX 5 13 1 -3
BITMAP
50
20
00
68
98
88
88
88
98
68
08
88
70
ENDCHAR
STARTCHAR uni01E8
ENCODING 488
SWIDTH 667 0
DWIDTH 8 0
BBX 7 12 1 0
BITMAP
50
20
00
84
88
90
A0
E0
90
88
84
82
ENDCHAR
STARTCHAR uni01E9
ENCODING 489
SWIDTH 500 0
DWIDTH 6 0
BBX 5 12 1 0
BITMAP
A0
40
00
80
80
90
A0
C0
C0
A0
90
88
ENDCHAR
STARTCHAR uni01EA
ENCODING 490
SWIDTH 778 0
DWIDTH 10 0
BBX 8 12 1 -3
BITMAP
3C
42
81
81
81
81
81
42
3C
10
10
0C
ENDCHAR
STARTCHAR uni01EB
ENCODING 491
SWIDTH 556 0
DWIDTH 7 0
BBX 5 10 1 -3
BITMAP
70
88
88
88
88
88
70
40
40
30
ENDCHAR
STARTCHAR uni01EC
ENCODING 492
SWIDTH 778 0
DWIDTH 10 0
BBX 8 14 1 -3
BITMAP
3C
00
3C
42
81
81
81
81
81
42
3C
10
10
0C
ENDCHAR
STARTCHAR uni01ED
ENCODING 493
SWIDTH 556 0
DWIDTH 7 0
BBX 5 12 1 -3
BITMAP
78
00
70
88
88
88
88
88
70
40
40
30
ENDCHAR
STARTCHAR uni01F0
ENCODING 496
SWIDTH 222 0
DWIDTH 3 0
BBX 3 13 0 -3
BITMAP
A0
40
00
40
40
40
40
40
40
40
40
40
80
ENDCHAR
STARTCHAR uni01F4
ENCODING 500
SWIDTH 778 0
DWIDTH 9 0
BBX 7 12 1 0
BITMAP
08
10
00
3C
42
80
80
8E
82
82
46
3A
ENDCHAR
STARTCHAR uni01F5
ENCODING 501
SWIDTH 556 0
DWIDTH 7 0
BBX 5 13 1 -3
BITMAP
10
20
00
68
98
88
88
88
98
68
08
88
70
ENDCHAR
STARTCHAR uni01F8
ENCODING 504
SWIDTH 722 0
DWIDTH 9 0
BBX 7 12 1 0
BITMAP
20
10
00
82
C2
A2
A2
92
8A
8A
86
82
ENDCHAR
STARTCHAR uni01F9
ENCODING 505
SWIDTH 556 0
DWIDTH 7 0
BBX 5 10 1 0
BITMAP
40
20
00
B0
C8
88
88
88
88
88
ENDCHAR
STARTCHAR Aringacute
ENCODING 506
SWIDTH 667 0
DWIDTH 9 0
BBX 7 15 1 0
BITMAP
08
10
00
10
28
10
10
10
28
44
44
7C
82
82
82
ENDCHAR
STARTCHAR aringacute
ENCODING 507
SWIDTH 556 0
DWIDTH 7 0
BBX 6 13 1 0
BITMAP
10
20
00
30
48
30
70
88
08
78
88
88
74
ENDCHAR
STARTCHAR AEacute
ENCODING 508
SWIDTH 1000 0
DWIDTH 11 0
BBX 9 12 1 0
BITMAP
0400
0800
0000
1F80
2800
2800
4800
4F80
7800
8800
8800
8F80
ENDCHAR
STARTCHAR aeacute
ENCODING 509
SWIDTH 889 0
DWIDTH 11 0
BBX 9 10 1 0
BITMAP
0400
0800
0000
7700
8880
0880
7F80
8800
8880
7700
ENDCHAR
STARTCHAR Oslashacute
ENCODING 510
SWIDTH 778 0
DWIDTH 10 0
BBX 10 14 0 -1
BITMAP
0200
0400
0000
0040
1E80
2100
4280
4480
4480
4880
5080
2100
5E00
8000
ENDCHAR
STARTCHAR oslashacute
ENCODING 511
SWIDTH 611 0
DWIDTH 7 0
BBX 7 10 0 0
BITMAP
08
10
00
3A
44
4C
54
64
44
B8
ENDCHAR
STARTCHAR uni0200
ENCODING 512
SWIDTH 667 0
DWIDTH 9 0
BBX 7 12 1 0
BITMAP
50
28
00
10
28
28
44
44
7C
82
82
82
ENDCHAR
STARTCHAR uni0201
ENCODING 513
SWIDTH 556 0
DWIDTH 7 0
BBX 6 10 1 0
BITMAP
A0
50
00
70
88
08
78
88
88
74
ENDCHAR
STARTCHAR uni0202
ENCODING 514
SWIDTH 667 0
DWIDTH 9 0
BBX 7 12 1 0
BITMAP
18
24
00
10
28
28
44
44
7C
82
82
82
ENDCHAR
STARTCHAR uni0203
ENCODING 515
SWIDTH 556 0
DWIDTH 7 0
BBX 6 10 1 0
BITMAP
30
48
00
70
88
08
78
88
88
74
ENDCHAR
STARTCHAR uni0204
ENCODING 516
SWIDTH 667 0
DWIDTH 8 0
BBX 6 12 1 0
BITMAP
A0
50
00
FC
80
80
80
FC
80
80
80
FC
ENDCHAR
STARTCHAR uni0205
ENCODING 517
SWIDTH 556 0
DWIDTH 7 0
BBX 5 10 1 0
BITMAP
A0
50
00
70
88
88
F8
80
88
70
ENDCHAR
STARTCHAR uni0206
ENCODING 518
SWIDTH 667 0
DWIDTH 8 0
BBX 6 12 1 0
BITMAP
30
48
00
FC
80
80
80
FC
80
80
80
FC
ENDCHAR
STARTCHAR uni0207
ENCODING 519
SWIDTH 556 0
DWIDTH 7 0
BBX 5 10 1 0
BITMAP
30
48
00
70
88
88
F8
80
88
70
ENDCHAR
STARTCHAR uni0208
ENCODING 520
SWIDTH 278 0
DWIDTH 3 0
BBX 4 12 -1 0
BITMAP
A0
50
00
20
20
20
20
20
20
20
20
20
ENDCHAR
STARTCHAR uni0209
ENCODING 521
SWIDTH 278 0
DWIDTH 3 0
BBX 4 10 -1 0
BITMAP
A0
50
00
20
20
20
20
20
20
20
ENDCHAR
STARTCHAR uni020A
ENCODING 522
SWIDTH 278 0
DWIDTH 3 0
BBX 4 12 0 0
BITMAP
60
90
00
40
40
40
40
40
40
40
40
40
ENDCHAR
STARTCHAR uni020B
ENCODING 523
SWIDTH 278 0
DWIDTH 3 0
BBX 4 10 0 0
BITMAP
60
90
00
40
40
40
40
40
40
40
ENDCHAR
STARTCHAR uni020C
ENCODING 524
SWIDTH 778 0
DWIDTH 10 0
BBX 8 12 1 0
BITMAP
28
14
00
3C
42
81
81
81
81
81
42
3C
ENDCHAR
STARTCHAR uni020D
ENCODING 525
SWIDTH 556 0
DWIDTH 7 0
BBX 5 10 1 0
BITMAP
A0
50
00
70
88
88
88
88
88
70
ENDCHAR
STARTCHAR uni020E
ENCODING 526
SWIDTH 778 0
DWIDTH 10 0
BBX 8 12 1 0
BITMAP
18
24
00
3C
42
81
81
81
81
81
42
3C
ENDCHAR
STARTCHAR uni020F
ENCODING 527
SWIDTH 556 0
DWIDTH 7 0
BBX 5 10 1 0
BITMAP
30
48
00
70
88
88
88
88
88
70
ENDCHAR
STARTCHAR uni0210
ENCODING 528
SWIDTH 722 0
DWIDTH 8 0
BBX 6 12 1 0
BITMAP
A0
50
00
F8
84
84
84
F8
88
84
84
84
ENDCHAR
STARTCHAR uni0211
ENCODING 529
SWIDTH 333 0
DWIDTH 4 0
BBX 4 10 0 0
BITMAP
A0
50
00
50
60
40
40
40
40
40
ENDCHAR
STARTCHAR uni0212
ENCODING 530
SWIDTH 722 0
DWIDTH 8 0
BBX 6 12 1 0
BITMAP
30
48
00
F8
84
84
84
F8
88
84
84
84
ENDCHAR
STARTCHAR uni0213
ENCODING 531
SWIDTH 333 0
DWIDTH 4 0
BBX 4 10 0 0
BITMAP
60
90
00
50
60
40
40
40
40
40
ENDCHAR
STARTCHAR uni0214
ENCODING 532
SWIDTH 722 0
DWIDTH 8 0
BBX 6 12 1 0
BITMAP
50
28
00
84
84
84
84
84
84
84
84
78
ENDCHAR
STARTCHAR uni0215
ENCODING 533
SWIDTH 556 0
DWIDTH 7 0
BBX 5 10 1 0
BITMAP
A0
50
00
88
88
88
88
88
98
68
ENDCHAR
STARTCHAR uni0216
ENCODING 534
SWIDTH 722 0
DWIDTH 8 0
BBX 6 12 1 0
BITMAP
30
48
00
84
84
84
84
84
84
84
84
78
ENDCHAR
STARTCHAR uni0217
ENCODING 535
SWIDTH 556 0
DWIDTH 7 0
BBX 5 10 1 0
BITMAP
30
48
00
88
88
88
88
88
98
68
ENDCHAR
STARTCHAR Scommaaccent
ENCODING 536
SWIDTH 667 0
DWIDTH 8 0
BBX 6 13 1 -4
BITMAP
78
84
80
60
18
04
84
84
78
00
10
10
20
ENDCHAR
STARTCHAR scommaaccent
ENCODING 537
SWIDTH 500 0
DWIDTH 6 0
BBX 4 11 1 -4
BITMAP
60
90
80
60
10
90
60
00
20
20
40
ENDCHAR
STARTCHAR Tcommaaccent
ENCODING 538
SWIDTH 611 0
DWIDTH 7 0
BBX 7 13 0 -4
BITMAP
FE
10
10
10
10
10
10
10
10
00
10
10
20
ENDCHAR
STARTCHAR tcommaaccent
ENCODING 539
SWIDTH 278 0
DWIDTH 3 0
BBX 3 13 0 -4
BITMAP
40
40
E0
40
40
40
40
40
60
00
40
40
80
ENDCHAR
STARTCHAR uni021E
ENCODING 542
SWIDTH 722 0
DWIDTH 9 0
BBX 7 12 1 0
BITMAP
28
10
00
82
82
82
82
FE
82
82
82
82
ENDCHAR
STARTCHAR uni021F
ENCODING 543
SWIDTH 556 0
DWIDTH 7 0
BBX 5 12 1 0
BITMAP
A0
40
00
80
80
B0
C8
88
88
88
88
88
ENDCHAR
STARTCHAR uni0226
ENCODING 550
SWIDTH 667 0
DWIDTH 9 0
BBX 7 11 1 0
BITMAP
10
00
10
28
28
44
44
7C
82
82
82
ENDCHAR
STARTCHAR uni0227
ENCODING 551
SWIDTH 556 0
DWIDTH 7 0
BBX 6 9 1 0
BITMAP
20
00
70
88
08
78
88
88
74
ENDCHAR
STARTCHAR uni0228
ENCODING 552
SWIDTH 667 0
DWIDTH 8 0
BBX 6 12 1 -3
BITMAP
FC
80
80
80
FC
80
80
80
FC
10
10
60
ENDCHAR
STARTCHAR uni0229
ENCODING 553
SWIDTH 556 0
DWIDTH 7 0
BBX 5 10 1 -3
BITMAP
70
88
88
F8
80
88
70
10
10
60
ENDCHAR
STARTCHAR uni022A
ENCODING 554
SWIDTH 778 0
DWIDTH 10 0
BBX 8 13 1 0
BITMAP
3C
00
24
00
3C
42
81
81
81
81
81
42
3C
ENDCHAR
STARTCHAR uni022B
ENCODING 555
SWIDTH 556 0
DWIDTH 7 0
BBX 5 11 1 0
BITMAP
78
00
50
00
70
88
88
88
88
88
70
ENDCHAR
STARTCHAR uni022C
ENCODING 556
SWIDTH 778 0
DWIDTH 10 0
BBX 8 14 1 0
BITMAP
3C
00
14
28
00
3C
42
81
81
81
81
81
42
3C
ENDCHAR
STARTCHAR uni022D
ENCODING 557
SWIDTH 556 0
DWIDTH 7 0
BBX 5 12 1 0
BITMAP
78
00
28
50
00
70
88
88
88
88
88
70
ENDCHAR
STARTCHAR uni022E
ENCODING 558
SWIDTH 778 0
DWIDTH 10 0
BBX 8 11 1 0
BITMAP
08
00
3C
42
81
81
81
81
81
42
3C
ENDCHAR
STARTCHAR uni022F
ENCODING 559
SWIDTH 556 0
DWIDTH 7 0
BBX 5 9 1 0
BITMAP
20
00
70
88
88
88
88
88
70
ENDCHAR
STARTCHAR uni0230
ENCODING 560
SWIDTH 778 0
DWIDTH 10 0
BBX 8 13 1 0
BITMAP
3C
00
08
00
3C
42
81
81
81
81
81
42
3C
ENDCHAR
STARTCHAR uni0231
ENCODING 561
SWIDTH 556 0
DWIDTH 7 0
BBX 5 11 1 0
BITMAP
78
00
20
00
70
88
88
88
88
88
70
ENDCHAR
STARTCHAR uni0232
ENCODING 562
SWIDTH 667 0
DWIDTH 9 0
BBX 7 11 1 0
BITMAP
3C
00
82
82
44
44
28
10
10
10
10
ENDCHAR
STARTCHAR uni0233
ENCODING 563
SWIDTH 500 0
DWIDTH 7 0
BBX 5 12 1 -3
BITMAP
78
00
88
88
88
90
50
50
20
20
40
80
ENDCHAR
STARTCHAR uni0250
ENCODING 592
SWIDTH 556 0
DWIDTH 7 0
BBX 6 7 1 0
BITMAP
B8
44
44
78
40
44
38
ENDCHAR
STARTCHAR uni0254
ENCODING 596
SWIDTH 500 0
DWIDTH 7 0
BBX 5 7 1 0
BITMAP
70
88
08
08
08
88
70
ENDCHAR
STARTCHAR uni0258
ENCODING 600
SWIDTH 556 0
DWIDTH 7 0
BBX 5 7 1 0
BITMAP
70
88
88
F8
08
88
70
ENDCHAR
STARTCHAR uni0259
ENCODING 601
SWIDTH 556 0
DWIDTH 7 0
BBX 5 7 1 0
BITMAP
70
88
08
F8
88
88
70
ENDCHAR
STARTCHAR uni025F
ENCODING 607
SWIDTH 278 0
DWIDTH 3 0
BBX 4 9 0 -2
BITMAP
20
20
20
20
20
20
70
20
C0
ENDCHAR
STARTCHAR uni0265
ENCODING 613
SWIDTH 556 0
DWIDTH 7 0
BBX 5 9 1 -2
BITMAP
88
88
88
88
88
98
68
08
08
ENDCHAR
STARTCHAR uni0275
ENCODING 629
SWIDTH 556 0
DWIDTH 7 0
BBX 5 7 1 0
BITMAP
70
88
88
F8
88
88
70
ENDCHAR
STARTCHAR uni0279
ENCODING 633
SWIDTH 333 0
DWIDTH 4 0
BBX 3 7 1 0
BITMAP
20
20
20
20
20
60
A0
ENDCHAR
STARTCHAR uni0287
ENCODING 647
SWIDTH 278 0
DWIDTH 3 0
BBX 3 9 0 0
BITMAP
C0
40
40
40
40
40
E0
40
40
ENDCHAR
STARTCHAR uni0288
ENCODING 648
SWIDTH 278 0
DWIDTH 3 0
BBX 3 12 0 -3
BITMAP
40
40
E0
40
40
40
40
40
40
40
40
20
ENDCHAR
STARTCHAR uni0289
ENCODING 649
SWIDTH 556 0
DWIDTH 7 0
BBX 5 7 1 0
BITMAP
88
88
88
F8
88
98
68
ENDCHAR
STARTCHAR uni028C
ENCODING 652
SWIDTH 500 0
DWIDTH 7 0
BBX 5 7 1 0
BITMAP
20
20
50
50
88
88
88
ENDCHAR
STARTCHAR uni028D
ENCODING 653
SWIDTH 722 0
DWIDTH 9 0
BBX 9 7 0 0
BITMAP
2200
2200
5500
4900
4900
8880
8880
ENDCHAR
STARTCHAR uni028E
ENCODING 654
SWIDTH 500 0
DWIDTH 7 0
BBX 5 10 1 0
BITMAP
08
10
20
20
50
50
48
88
88
88
ENDCHAR
STARTCHAR uni029E
ENCODING 670
SWIDTH 500 0
DWIDTH 6 0
BBX 5 9 1 -2
BITMAP
88
48
28
18
18
28
48
08
08
ENDCHAR
STARTCHAR uni02BB
ENCODING 699
SWIDTH 222 0
DWIDTH 3 0
BBX 2 3 0 6
BITMAP
40
80
C0
ENDCHAR
STARTCHAR afii57929
ENCODING 700
SWIDTH 222 0
DWIDTH 3 0
BBX 2 3 1 6
BITMAP
C0
40
80
ENDCHAR
STARTCHAR afii64937
ENCODING 701
SWIDTH 222 0
DWIDTH 3 0
BBX 2 3 1 6
BITMAP
C0
80
40
ENDCHAR
STARTCHAR circumflex
ENCODING 710
SWIDTH 333 0
DWIDTH 3 0
BBX 3 2 0 8
BITMAP
40
A0
ENDCHAR
STARTCHAR caron
ENCODING 711
SWIDTH 333 0
DWIDTH 3 0
BBX 3 2 0 8
BITMAP
A0
40
ENDCHAR
STARTCHAR uni02C8
ENCODING 712
SWIDTH 191 0
DWIDTH 3 0
BBX 1 3 1 6
BITMAP
80
80
80
ENDCHAR
STARTCHAR macron
ENCODING 713
SWIDTH 333 0
DWIDTH 4 0
BBX 4 1 0 8
BITMAP
F0
ENDCHAR
STARTCHAR uni02CA
ENCODING 714
SWIDTH 333 0
DWIDTH 2 0
BBX 2 2 0 8
BITMAP
40
80
ENDCHAR
STARTCHAR uni02CB
ENCODING 715
SWIDTH 333 0
DWIDTH 2 0
BBX 2 2 0 8
BITMAP
80
40
ENDCHAR
STARTCHAR uni02CD
ENCODING 717
SWIDTH 333 0
DWIDTH 4 0
BBX 4 1 0 -2
BITMAP
F0
ENDCHAR
STARTCHAR uni02CE
ENCODING 718
SWIDTH 333 0
DWIDTH 2 0
BBX 2 2 0 -3
BITMAP
80
40
ENDCHAR
STARTCHAR uni02CF
ENCODING 719
SWIDTH 333 0
DWIDTH 2 0
BBX 2 2 0 -3
BITMAP
40
80
ENDCHAR
STARTCHAR breve
ENCODING 728
SWIDTH 333 0
DWIDTH 4 0
BBX 4 2 0 8
BITMAP
90
60
ENDCHAR
STARTCHAR dotaccent
ENCODING 729
SWIDTH 333 0
DWIDTH 3 0
BBX 1 1 1 8
BITMAP
80
ENDCHAR
STARTCHAR ring
ENCODING 730
SWIDTH 333 0
DWIDTH 4 0
BBX 4 3 0 7
BITMAP
60
90
60
ENDCHAR
STARTCHAR ogonek
ENCODING 731
SWIDTH 333 0
DWIDTH 3 0
BBX 3 4 0 -3
BITMAP
40
80
80
60
ENDCHAR
STARTCHAR tilde
ENCODING 732
SWIDTH 333 0
DWIDTH 4 0
BBX 4 2 0 8
BITMAP
50
A0
ENDCHAR
STARTCHAR hungarumlaut
ENCODING 733
SWIDTH 333 0
DWIDTH 4 0
BBX 4 2 0 8
BITMAP
50
A0
ENDCHAR
STARTCHAR uni02EE
ENCODING 750
SWIDTH 333 0
DWIDTH 5 0
BBX 5 3 0 6
BITMAP
D8
48
90
ENDCHAR
STARTCHAR uni037E
ENCODING 894
SWIDTH 278 0
DWIDTH 3 0
BBX 2 8 0 -2
BITMAP
40
00
00
00
00
40
40
80
ENDCHAR
STARTCHAR tonos
ENCODING 900
SWIDTH 333 0
DWIDTH 2 0
BBX 2 2 0 8
BITMAP
40
80
ENDCHAR
STARTCHAR dieresistonos
ENCODING 901
SWIDTH 333 0
DWIDTH 3 0
BBX 3 4 0 8
BITMAP
20
40
00
A0
ENDCHAR
STARTCHAR anoteleia
ENCODING 903
SWIDTH 278 0
DWIDTH 3 0
BBX 1 1 1 3
BITMAP
80
ENDCHAR
STARTCHAR mu
ENCODING 956
SWIDTH 556 0
DWIDTH 7 0
BBX 5 10 1 -3
BITMAP
88
88
88
88
88
98
E8
80
80
80
ENDCHAR
STARTCHAR uni1E00
ENCODING 7680
SWIDTH 667 0
DWIDTH 9 0
BBX 7 13 1 -4
BITMAP
10
28
28
44
44
7C
82
82
82
00
18
24
18
ENDCHAR
STARTCHAR uni1E01
ENCODING 7681
SWIDTH 556 0
DWIDTH 7 0
BBX 6 11 1 -4
BITMAP
70
88
08
78
88
88
74
00
30
48
30
ENDCHAR
STARTCHAR uni1E02
ENCODING 7682
SWIDTH 667 0
DWIDTH 8 0
BBX 6 11 1 0
BITMAP
20
00
F8
84
84
84
F8
84
84
84
F8
ENDCHAR
STARTCHAR uni1E03
ENCODING 7683
SWIDTH 556 0
DWIDTH 7 0
BBX 5 11 1 0
BITMAP
40
00
80
80
B0
C8
88
88
88
C8
B0
ENDCHAR
STARTCHAR uni1E04
ENCODING 7684
SWIDTH 667 0
DWIDTH 8 0
BBX 6 11 1 -2
BITMAP
F8
84
84
84
F8
84
84
84
F8
00
20
ENDCHAR
STARTCHAR uni1E05
ENCODING 7685
SWIDTH 556 0
DWIDTH 7 0
BBX 5 11 1 -2
BITMAP
80
80
B0
C8
88
88
88
C8
B0
00
20
ENDCHAR
STARTCHAR uni1E06
ENCODING 7686
SWIDTH 667 0
DWIDTH 8 0
BBX 6 11 1 -2
BITMAP
F8
84
84
84
F8
84
84
84
F8
00
78
ENDCHAR
STARTCHAR uni1E07
ENCODING 7687
SWIDTH 556 0
DWIDTH 7 0
BBX 5 11 1 -2
BITMAP
80
80
B0
C8
88
88
88
C8
B0
00
F0
ENDCHAR
STARTCHAR uni1E08
ENCODING 7688
SWIDTH 722 0
DWIDTH 9 0
BBX 7 15 1 -3
BITMAP
08
10
00
3C
42
80
80
80
80
80
42
3C
08
08
30
ENDCHAR
STARTCHAR uni1E09
ENCODING 7689
SWIDTH 500 0
DWIDTH 7 0
BBX 5 13 1 -3
BITMAP
10
20
00
70
88
80
80
80
88
70
20
10
60
ENDCHAR
STARTCHAR uni1E0A
ENCODING 7690
SWIDTH 722 0
DWIDTH 9 0
BBX 7 11 1 0
BITMAP
10
00
F8
84
82
82
82
82
82
84
F8
ENDCHAR
STARTCHAR uni1E0B
ENCODING 7691
SWIDTH 556 0
DWIDTH 7 0
BBX 5 11 1 0
BITMAP
10
00
08
08
68
98
88
88
88
98
68
ENDCHAR
STARTCHAR uni1E0C
ENCODING 7692
SWIDTH 722 0
DWIDTH 9 0
BBX 7 11 1 -2
BITMAP
F8
84
82
82
82
82
82
84
F8
00
10
ENDCHAR
STARTCHAR uni1E0D
ENCODING 7693
SWIDTH 556 0
DWIDTH 7 0
BBX 5 11 1 -2
BITMAP
08
08
68
98
88
88
88
98
68
00
20
ENDCHAR
STARTCHAR uni1E0E
ENCODING 7694
SWIDTH 722 0
DWIDTH 9 0
BBX 7 11 1 -2
BITMAP
F8
84
82
82
82
82
82
84
F8
00
78
ENDCHAR
STARTCHAR uni1E0F
ENCODING 7695
SWIDTH 556 0
DWIDTH 7 0
BBX 5 11 1 -2
BITMAP
08
08
68
98
88
88
88
98
68
00
78
ENDCHAR
STARTCHAR uni1E10
ENCODING 7696
SWIDTH 722 0
DWIDTH 9 0
BBX 7 12 1 -3
BITMAP
F8
84
82
82
82
82
82
84
F8
10
10
60
ENDCHAR
STARTCHAR uni1E11
ENCODING 7697
SWIDTH 556 0
DWIDTH 7 0
BBX 5 12 1 -3
BITMAP
08
08
68
98
88
88
88
98
68
10
10
60
ENDCHAR
STARTCHAR uni1E12
ENCODING 7698
SWIDTH 722 0
DWIDTH 9 0
BBX 7 12 1 -3
BITMAP
F8
84
82
82
82
82
82
84
F8
00
10
28
ENDCHAR
STARTCHAR uni1E13
ENCODING 7699
SWIDTH 556 0
DWIDTH 7 0
BBX 5 12 1 -3
BITMAP
08
08
68
98
88
88
88
98
68
00
20
50
ENDCHAR
STARTCHAR uni1E14
ENCODING 7700
SWIDTH 667 0
DWIDTH 8 0
BBX 6 14 1 0
BITMAP
20
10
00
78
00
FC
80
80
80
FC
80
80
80
FC
ENDCHAR
STARTCHAR uni1E15
ENCODING 7701
SWIDTH 556 0
DWIDTH 7 0
BBX 5 12 1 0
BITMAP
40
20
00
78
00
70
88
88
F8
80
88
70
ENDCHAR
STARTCHAR uni1E16
ENCODING 7702
SWIDTH 667 0
DWIDTH 8 0
BBX 6 14 1 0
BITMAP
10
20
00
78
00
FC
80
80
80
FC
80
80
80
FC
ENDCHAR
STARTCHAR uni1E17
ENCODING 7703
SWIDTH 556 0
DWIDTH 7 0
BBX 5 12 1 0
BITMAP
10
20
00
78
00
70
88
88
F8
80
88
70
ENDCHAR
STARTCHAR uni1E18
ENCODING 7704
SWIDTH 667 0
DWIDTH 8 0
BBX 6 12 1 -3
BITMAP
FC
80
80
80
FC
80
80
80
FC
00
20
50
ENDCHAR
STARTCHAR uni1E19
ENCODING 7705
SWIDTH 556 0
DWIDTH 7 0
BBX 5 10 1 -3
BITMAP
70
88
88
F8
80
88
70
00
20
50
ENDCHAR
STARTCHAR uni1E1A
ENCODING 7706
SWIDTH 667 0
DWIDTH 8 0
BBX 6 12 1 -3
BITMAP
FC
80
80
80
FC
80
80
80
FC
00
50
A0
ENDCHAR
STARTCHAR uni1E1B
ENCODING 7707
SWIDTH 556 0
DWIDTH 7 0
BBX 5 10 1 -3
BITMAP
70
88
88
F8
80
88
70
00
50
A0
ENDCHAR
STARTCHAR uni1E1C
ENCODING 7708
SWIDTH 667 0
DWIDTH 8 0
BBX 6 15 1 -3
BITMAP
90
60
00
FC
80
80
80
FC
80
80
80
FC
10
10
60
ENDCHAR
STARTCHAR uni1E1D
ENCODING 7709
SWIDTH 556 0
DWIDTH 7 0
BBX 5 13 1 -3
BITMAP
48
30
00
70
88
88
F8
80
88
70
10
10
60
ENDCHAR
STARTCHAR uni1E1E
ENCODING 7710
SWIDTH 611 0
DWIDTH 8 0
BBX 6 11 1 0
BITMAP
20
00
FC
80
80
80
F8
80
80
80
80
ENDCHAR
STARTCHAR uni1E1F
ENCODING 7711
SWIDTH 278 0
DWIDTH 3 0
BBX 4 11 0 0
BITMAP
20
00
30
40
E0
40
40
40
40
40
40
ENDCHAR
STARTCHAR uni1E20
ENCODING 7712
SWIDTH 778 0
DWIDTH 9 0
BBX 7 11 1 0
BITMAP
3C
00
3C
42
80
80
8E
82
82
46
3A
ENDCHAR
STARTCHAR uni1E21
ENCODING 7713
SWIDTH 556 0
DWIDTH 7 0
BBX 5 12 1 -3
BITMAP
78
00
68
98
88
88
88
98
68
08
88
70
ENDCHAR
STARTCHAR uni1E22
ENCODING 7714
SWIDTH 722 0
DWIDTH 9 0
BBX 7 11 1 0
BITMAP
10
00
82
82
82
82
FE
82
82
82
82
ENDCHAR
STARTCHAR uni1E23
ENCODING 7715
SWIDTH 556 0
DWIDTH 7 0
BBX 5 11 1 0
BITMAP
40
00
80
80
B0
C8
88
88
88
88
88
ENDCHAR
STARTCHAR uni1E24
ENCODING 7716
SWIDTH 722 0
DWIDTH 9 0
BBX 7 11 1 -2
BITMAP
82
82
82
82
FE
82
82
82
82
00
10
ENDCHAR
STARTCHAR uni1E25
ENCODING 7717
SWIDTH 556 0
DWIDTH 7 0
BBX 5 11 1 -2
BITMAP
80
80
B0
C8
88
88
88
88
88
00
20
ENDCHAR
STARTCHAR uni1E26
ENCODING 7718
SWIDTH 722 0
DWIDTH 9 0
BBX 7 11 1 0
BITMAP
28
00
82
82
82
82
FE
82
82
82
82
ENDCHAR
STARTCHAR uni1E27
ENCODING 7719
SWIDTH 556 0
DWIDTH 7 0
BBX 5 11 1 0
BITMAP
A0
00
80
80
B0
C8
88
88
88
88
88
ENDCHAR
STARTCHAR uni1E28
ENCODING 7720
SWIDTH 722 0
DWIDTH 9 0
BBX 7 12 1 -3
BITMAP
82
82
82
82
FE
82
82
82
92
08
08
30
ENDCHAR
STARTCHAR uni1E29
ENCODING 7721
SWIDTH 556 0
DWIDTH 7 0
BBX 5 12 1 -3
BITMAP
80
80
B0
C8
88
88
88
88
A8
10
10
60
ENDCHAR
STARTCHAR uni1E2A
ENCODING 7722
SWIDTH 722 0
DWIDTH 9 0
BBX 7 12 1 -3
BITMAP
82
82
82
82
FE
82
82
82
82
00
24
18
ENDCHAR
STARTCHAR uni1E2B
ENCODING 7723
SWIDTH 556 0
DWIDTH 7 0
BBX 5 12 1 -3
BITMAP
80
80
B0
C8
88
88
88
88
88
00
48
30
ENDCHAR
STARTCHAR uni1E2C
ENCODING 7724
SWIDTH 278 0
DWIDTH 3 0
BBX 4 12 -1 -3
BITMAP
20
20
20
20
20
20
20
20
20
00
50
A0
ENDCHAR
STARTCHAR uni1E2D
ENCODING 7725
SWIDTH 222 0
DWIDTH 3 0
BBX 4 12 -1 -3
BITMAP
20
00
20
20
20
20
20
20
20
00
50
A0
ENDCHAR
STARTCHAR uni1E2E
ENCODING 7726
SWIDTH 278 0
DWIDTH 3 0
BBX 3 14 0 0
BITMAP
20
40
00
A0
00
40
40
40
40
40
40
40
40
40
ENDCHAR
STARTCHAR uni1E2F
ENCODING 7727
SWIDTH 278 0
DWIDTH 3 0
BBX 3 12 0 0
BITMAP
20
40
00
A0
00
40
40
40
40
40
40
40
ENDCHAR
STARTCHAR uni1E30
ENCODING 7728
SWIDTH 667 0
DWIDTH 8 0
BBX 7 12 1 0
BITMAP
10
20
00
84
88
90
A0
E0
90
88
84
82
ENDCHAR
STARTCHAR uni1E31
ENCODING 7729
SWIDTH 500 0
DWIDTH 6 0
BBX 5 12 1 0
BITMAP
20
40
00
80
80
90
A0
C0
C0
A0
90
88
ENDCHAR
STARTCHAR uni1E32
ENCODING 7730
SWIDTH 667 0
DWIDTH 8 0
BBX 7 11 1 -2
BITMAP
84
88
90
A0
E0
90
88
84
82
00
10
ENDCHAR
STARTCHAR uni1E33
ENCODING 7731
SWIDTH 500 0
DWIDTH 6 0
BBX 5 11 1 -2
BITMAP
80
80
90
A0
C0
C0
A0
90
88
00
20
ENDCHAR
STARTCHAR uni1E34
ENCODING 7732
SWIDTH 667 0
DWIDTH 8 0
BBX 7 11 1 -2
BITMAP
84
88
90
A0
E0
90
88
84
82
00
78
ENDCHAR
STARTCHAR uni1E35
ENCODING 7733
SWIDTH 500 0
DWIDTH 6 0
BBX 5 11 1 -2
BITMAP
80
80
90
A0
C0
C0
A0
90
88
00
F0
ENDCHAR
STARTCHAR uni1E36
ENCODING 7734
SWIDTH 556 0
DWIDTH 7 0
BBX 5 11 1 -2
BITMAP
80
80
80
80
80
80
80
80
F8
00
20
ENDCHAR
STARTCHAR uni1E37
ENCODING 7735
SWIDTH 222 0
DWIDTH 3 0
BBX 1 11 1 -2
BITMAP
80
80
80
80
80
80
80
80
80
00
80
ENDCHAR
STARTCHAR uni1E38
ENCODING 7736
SWIDTH 556 0
DWIDTH 7 0
BBX 6 13 0 -2
BITMAP
F0
00
40
40
40
40
40
40
40
40
7C
00
10
ENDCHAR
STARTCHAR uni1E39
ENCODING 7737
SWIDTH 222 0
DWIDTH 3 0
BBX 4 13 0 -2
BITMAP
F0
00
40
40
40
40
40
40
40
40
40
00
40
ENDCHAR
STARTCHAR uni1E3A
ENCODING 7738
SWIDTH 556 0
DWIDTH 7 0
BBX 5 11 1 -2
BITMAP
80
80
80
80
80
80
80
80
F8
00
F0
ENDCHAR
STARTCHAR uni1E3B
ENCODING 7739
SWIDTH 222 0
DWIDTH 3 0
BBX 4 11 0 -2
BITMAP
40
40
40
40
40
40
40
40
40
00
F0
ENDCHAR
STARTCHAR uni1E3C
ENCODING 7740
SWIDTH 556 0
DWIDTH 7 0
BBX 5 12 1 -3
BITMAP
80
80
80
80
80
80
80
80
F8
00
20
50
ENDCHAR
STARTCHAR uni1E3D
ENCODING 7741
SWIDTH 222 0
DWIDTH 3 0
BBX 3 12 0 -3
BITMAP
40
40
40
40
40
40
40
40
40
00
40
A0
ENDCHAR
STARTCHAR uni1E3E
ENCODING 7742
SWIDTH 833 0
DWIDTH 11 0
BBX 9 12 1 0
BITMAP
0400
0800
0000
8080
C180
C180
A280
A280
9480
9480
8880
8880
ENDCHAR
STARTCHAR uni1E3F
ENCODING 7743
SWIDTH 833 0
DWIDTH 9 0
BBX 7 10 1 0
BITMAP
08
10
00
A4
DA
92
92
92
92
92
ENDCHAR
STARTCHAR uni1E40
ENCODING 7744
SWIDTH 833 0
DWIDTH 11 0
BBX 9 11 1 0
BITMAP
0800
0000
8080
C180
C180
A280
A280
9480
9480
8880
8880
ENDCHAR
STARTCHAR uni1E41
ENCODING 7745
SWIDTH 833 0
DWIDTH 9 0
BBX 7 9 1 0
BITMAP
10
00
A4
DA
92
92
92
92
92
ENDCHAR
STARTCHAR uni1E42
ENCODING 7746
SWIDTH 833 0
DWIDTH 11 0
BBX 9 11 1 -2
BITMAP
8080
C180
C180
A280
A280
9480
9480
8880
8880
0000
0800
ENDCHAR
STARTCHAR uni1E43
ENCODING 7747
SWIDTH 833 0
DWIDTH 9 0
BBX 7 9 1 -2
BITMAP
A4
DA
92
92
92
92
92
00
10
ENDCHAR
STARTCHAR uni1E44
ENCODING 7748
SWIDTH 722 0
DWIDTH 9 0
BBX 7 11 1 0
BITMAP
10
00
82
C2
A2
A2
92
8A
8A
86
82
ENDCHAR
STARTCHAR uni1E45
ENCODING 7749
SWIDTH 556 0
DWIDTH 7 0
BBX 5 9 1 0
BITMAP
20
00
B0
C8
88
88
88
88
88
ENDCHAR
STARTCHAR uni1E46
ENCODING 7750
SWIDTH 722 0
DWIDTH 9 0
BBX 7 11 1 -2
BITMAP
82
C2
A2
A2
92
8A
8A
86
82
00
10
ENDCHAR
STARTCHAR uni1E47
ENCODING 7751
SWIDTH 556 0
DWIDTH 7 0
BBX 5 9 1 -2
BITMAP
B0
C8
88
88
88
88
88
00
20
ENDCHAR
STARTCHAR uni1E48
ENCODING 7752
SWIDTH 722 0
DWIDTH 9 0
BBX 7 11 1 -2
BITMAP
82
C2
A2
A2
92
8A
8A
86
82
00
3C
ENDCHAR
STARTCHAR uni1E49
ENCODING 7753
SWIDTH 556 0
DWIDTH 7 0
BBX 5 9 1 -2
BITMAP
B0
C8
88
88
88
88
88
00
78
ENDCHAR
STARTCHAR uni1E4A
ENCODING 7754
SWIDTH 722 0
DWIDTH 9 0
BBX 7 12 1 -3
BITMAP
82
C2
A2
A2
92
8A
8A
86
82
00
10
28
ENDCHAR
STARTCHAR uni1E4B
ENCODING 7755
SWIDTH 556 0
DWIDTH 7 0
BBX 5 10 1 -3
BITMAP
B0
C8
88
88
88
88
88
00
20
50
ENDCHAR
STARTCHAR uni1E4C
ENCODING 7756
SWIDTH 778 0
DWIDTH 10 0
BBX 8 15 1 0
BITMAP
08
10
00
14
28
00
3C
42
81
81
81
81
81
42
3C
ENDCHAR
STARTCHAR uni1E4D
ENCODING 7757
SWIDTH 556 0
DWIDTH 7 0
BBX 5 13 1 0
BITMAP
10
20
00
28
50
00
70
88
88
88
88
88
70
ENDCHAR
STARTCHAR uni1E4E
ENCODING 7758
SWIDTH 778 0
DWIDTH 10 0
BBX 8 14 1 0
BITMAP
14
00
14
28
00
3C
42
81
81
81
81
81
42
3C
ENDCHAR
STARTCHAR uni1E4F
ENCODING 7759
SWIDTH 556 0
DWIDTH 7 0
BBX 5 12 1 0
BITMAP
50
00
28
50
00
70
88
88
88
88
88
70
ENDCHAR
STARTCHAR uni1E50
ENCODING 7760
SWIDTH 778 0
DWIDTH 10 0
BBX 8 14 1 0
BITMAP
10
08
00
3C
00
3C
42
81
81
81
81
81
42
3C
ENDCHAR
STARTCHAR uni1E51
ENCODING 7761
SWIDTH 556 0
DWIDTH 7 0
BBX 5 12 1 0
BITMAP
40
20
00
78
00
70
88
88
88
88
88
70
ENDCHAR
STARTCHAR uni1E52
ENCODING 7762
SWIDTH 778 0
DWIDTH 10 0
BBX 8 14 1 0
BITMAP
08
10
00
3C
00
3C
42
81
81
81
81
81
42
3C
ENDCHAR
STARTCHAR uni1E53
ENCODING 7763
SWIDTH 556 0
DWIDTH 7 0
BBX 5 12 1 0
BITMAP
10
20
00
78
00
70
88
88
88
88
88
70
ENDCHAR
STARTCHAR uni1E54
ENCODING 7764
SWIDTH 667 0
DWIDTH 8 0
BBX 6 12 1 0
BITMAP
10
20
00
F8
84
84
84
F8
80
80
80
80
ENDCHAR
STARTCHAR uni1E55
ENCODING 7765
SWIDTH 556 0
DWIDTH 7 0
BBX 5 13 1 -3
BITMAP
10
20
00
B0
C8
88
88
88
C8
B0
80
80
80
ENDCHAR
STARTCHAR uni1E56
ENCODING 7766
SWIDTH 667 0
DWIDTH 8 0
BBX 6 11 1 0
BITMAP
20
00
F8
84
84
84
F8
80
80
80
80
ENDCHAR
STARTCHAR uni1E57
ENCODING 7767
SWIDTH 556 0
DWIDTH 7 0
BBX 5 12 1 -3
BITMAP
20
00
B0
C8
88
88
88
C8
B0
80
80
80
ENDCHAR
STARTCHAR uni1E58
ENCODING 7768
SWIDTH 722 0
DWIDTH 8 0
BBX 6 11 1 0
BITMAP
20
00
F8
84
84
84
F8
88
84
84
84
ENDCHAR
STARTCHAR uni1E59
ENCODING 7769
SWIDTH 333 0
DWIDTH 4 0
BBX 3 9 1 0
BITMAP
40
00
A0
C0
80
80
80
80
80
ENDCHAR
STARTCHAR uni1E5A
ENCODING 7770
SWIDTH 722 0
DWIDTH 8 0
BBX 6 11 1 -2
BITMAP
F8
84
84
84
F8
88
84
84
84
00
10
ENDCHAR
STARTCHAR uni1E5B
ENCODING 7771
SWIDTH 333 0
DWIDTH 4 0
BBX 3 9 1 -2
BITMAP
A0
C0
80
80
80
80
80
00
80
ENDCHAR
STARTCHAR uni1E5C
ENCODING 7772
SWIDTH 722 0
DWIDTH 8 0
BBX 6 13 1 -2
BITMAP
78
00
F8
84
84
84
F8
88
84
84
84
00
10
ENDCHAR
STARTCHAR uni1E5D
ENCODING 7773
SWIDTH 333 0
DWIDTH 4 0
BBX 4 11 0 -2
BITMAP
F0
00
50
60
40
40
40
40
40
00
40
ENDCHAR
STARTCHAR uni1E5E
ENCODING 7774
SWIDTH 722 0
DWIDTH 8 0
BBX 6 11 1 -2
BITMAP
F8
84
84
84
F8
88
84
84
84
00
78
ENDCHAR
STARTCHAR uni1E5F
ENCODING 7775
SWIDTH 333 0
DWIDTH 4 0
BBX 4 9 0 -2
BITMAP
50
60
40
40
40
40
40
00
F0
ENDCHAR
STARTCHAR uni1E60
ENCODING 7776
SWIDTH 667 0
DWIDTH 8 0
BBX 6 11 1 0
BITMAP
20
00
78
84
80
60
18
04
84
84
78
ENDCHAR
STARTCHAR uni1E61
ENCODING 7777
SWIDTH 500 0
DWIDTH 6 0
BBX 4 9 1 0
BITMAP
20
00
60
90
80
60
10
90
60
ENDCHAR
STARTCHAR uni1E62
ENCODING 7778
SWIDTH 667 0
DWIDTH 8 0
BBX 6 11 1 -2
BITMAP
78
84
80
60
18
04
84
84
78
00
10
ENDCHAR
STARTCHAR uni1E63
ENCODING 7779
SWIDTH 500 0
DWIDTH 6 0
BBX 4 9 1 -2
BITMAP
60
90
80
60
10
90
60
00
20
ENDCHAR
STARTCHAR uni1E64
ENCODING 7780
SWIDTH 667 0
DWIDTH 8 0
BBX 6 14 1 0
BITMAP
10
00
10
20
00
78
84
80
60
18
04
84
84
78
ENDCHAR
STARTCHAR uni1E65
ENCODING 7781
SWIDTH 500 0
DWIDTH 6 0
BBX 4 12 1 0
BITMAP
20
00
20
40
00
60
90
80
60
10
90
60
ENDCHAR
STARTCHAR uni1E66
ENCODING 7782
SWIDTH 667 0
DWIDTH 8 0
BBX 6 14 1 0
BITMAP
10
00
28
10
00
78
84
80
60
18
04
84
84
78
ENDCHAR
STARTCHAR uni1E67
ENCODING 7783
SWIDTH 500 0
DWIDTH 6 0
BBX 4 12 1 0
BITMAP
40
00
A0
40
00
60
90
80
60
10
90
60
ENDCHAR
STARTCHAR uni1E68
ENCODING 7784
SWIDTH 667 0
DWIDTH 8 0
BBX 6 13 1 -2
BITMAP
20
00
78
84
80
60
18
04
84
84
78
00
10
ENDCHAR
STARTCHAR uni1E69
ENCODING 7785
SWIDTH 500 0
DWIDTH 6 0
BBX 4 11 1 -2
BITMAP
40
00
60
90
80
60
10
90
60
00
20
ENDCHAR
STARTCHAR uni1E6A
ENCODING 7786
SWIDTH 611 0
DWIDTH 7 0
BBX 7 11 0 0
BITMAP
10
00
FE
10
10
10
10
10
10
10
10
ENDCHAR
STARTCHAR uni1E6B
ENCODING 7787
SWIDTH 278 0
DWIDTH 3 0
BBX 3 11 0 0
BITMAP
40
00
40
40
E0
40
40
40
40
40
60
ENDCHAR
STARTCHAR uni1E6C
ENCODING 7788
SWIDTH 611 0
DWIDTH 7 0
BBX 7 11 0 -2
BITMAP
FE
10
10
10
10
10
10
10
10
00
10
ENDCHAR
STARTCHAR uni1E6D
ENCODING 7789
SWIDTH 278 0
DWIDTH 3 0
BBX 3 11 0 -2
BITMAP
40
40
E0
40
40
40
40
40
60
00
40
ENDCHAR
STARTCHAR uni1E6E
ENCODING 7790
SWIDTH 611 0
DWIDTH 7 0
BBX 7 11 0 -2
BITMAP
FE
10
10
10
10
10
10
10
10
00
3C
ENDCHAR
STARTCHAR uni1E6F
ENCODING 7791
SWIDTH 278 0
DWIDTH 3 0
BBX 4 11 0 -2
BITMAP
40
40
E0
40
40
40
40
40
60
00
F0
ENDCHAR
STARTCHAR uni1E70
ENCODING 7792
SWIDTH 611 0
DWIDTH 7 0
BBX 7 12 0 -3
BITMAP
FE
10
10
10
10
10
10
10
10
00
10
28
ENDCHAR
STARTCHAR uni1E71
ENCODING 7793
SWIDTH 278 0
DWIDTH 3 0
BBX 3 12 0 -3
BITMAP
40
40
E0
40
40
40
40
40
60
00
40
A0
ENDCHAR
STARTCHAR uni1E72
ENCODING 7794
SWIDTH 722 0
DWIDTH 8 0
BBX 6 11 1 -2
BITMAP
84
84
84
84
84
84
84
84
78
00
28
ENDCHAR
STARTCHAR uni1E73
ENCODING 7795
SWIDTH 556 0
DWIDTH 7 0
BBX 5 9 1 -2
BITMAP
88
88
88
88
88
98
68
00
50
ENDCHAR
STARTCHAR uni1E74
ENCODING 7796
SWIDTH 722 0
DWIDTH 8 0
BBX 6 12 1 -3
BITMAP
84
84
84
84
84
84
84
84
78
00
28
50
ENDCHAR
STARTCHAR uni1E75
ENCODING 7797
SWIDTH 556 0
DWIDTH 7 0
BBX 5 10 1 -3
BITMAP
88
88
88
88
88
98
68
00
50
A0
ENDCHAR
STARTCHAR uni1E76
ENCODING 7798
SWIDTH 722 0
DWIDTH 8 0
BBX 6 12 1 -3
BITMAP
84
84
84
84
84
84
84
84
78
00
10
28
ENDCHAR
STARTCHAR uni1E77
ENCODING 7799
SWIDTH 556 0
DWIDTH 7 0
BBX 5 10 1 -3
BITMAP
88
88
88
88
88
98
68
00
20
50
ENDCHAR
STARTCHAR uni1E78
ENCODING 7800
SWIDTH 722 0
DWIDTH 8 0
BBX 6 15 1 0
BITMAP
10
20
00
28
50
00
84
84
84
84
84
84
84
84
78
ENDCHAR
STARTCHAR uni1E79
ENCODING 7801
SWIDTH 556 0
DWIDTH 7 0
BBX 5 13 1 0
BITMAP
10
20
00
28
50
00
88
88
88
88
88
98
68
ENDCHAR
STARTCHAR uni1E7A
ENCODING 7802
SWIDTH 722 0
DWIDTH 8 0
BBX 6 13 1 0
BITMAP
28
00
78
00
84
84
84
84
84
84
84
84
78
ENDCHAR
STARTCHAR uni1E7B
ENCODING 7803
SWIDTH 556 0
DWIDTH 7 0
BBX 5 11 1 0
BITMAP
50
00
78
00
88
88
88
88
88
98
68
ENDCHAR
STARTCHAR uni1E7C
ENCODING 7804
SWIDTH 667 0
DWIDTH 9 0
BBX 7 12 1 0
BITMAP
14
28
00
82
82
44
44
44
28
28
10
10
ENDCHAR
STARTCHAR uni1E7D
ENCODING 7805
SWIDTH 500 0
DWIDTH 7 0
BBX 5 10 1 0
BITMAP
28
50
00
88
88
88
50
50
20
20
ENDCHAR
STARTCHAR uni1E7E
ENCODING 7806
SWIDTH 667 0
DWIDTH 9 0
BBX 7 11 1 -2
BITMAP
82
82
44
44
44
28
28
10
10
00
10
ENDCHAR
STARTCHAR uni1E7F
ENCODING 7807
SWIDTH 500 0
DWIDTH 7 0
BBX 5 9 1 -2
BITMAP
88
88
88
50
50
20
20
00
20
ENDCHAR
STARTCHAR Wgrave
ENCODING 7808
SWIDTH 944 0
DWIDTH 11 0
BBX 9 12 1 0
BITMAP
1000
0800
0000
8880
8880
8880
4900
5500
5500
2200
2200
2200
ENDCHAR
STARTCHAR wgrave
ENCODING 7809
SWIDTH 722 0
DWIDTH 9 0
BBX 9 10 0 0
BITMAP
1000
0800
0000
8880
8880
4900
4900
5500
2200
2200
ENDCHAR
STARTCHAR Wacute
ENCODING 7810
SWIDTH 944 0
DWIDTH 11 0
BBX 9 12 1 0
BITMAP
0400
0800
0000
8880
8880
8880
4900
5500
5500
2200
2200
2200
ENDCHAR
STARTCHAR wacute
ENCODING 7811
SWIDTH 722 0
DWIDTH 9 0
BBX 9 10 0 0
BITMAP
0400
0800
0000
8880
8880
4900
4900
5500
2200
2200
ENDCHAR
STARTCHAR Wdieresis
ENCODING 7812
SWIDTH 944 0
DWIDTH 11 0
BBX 9 11 1 0
BITMAP
1400
0000
8880
8880
8880
4900
5500
5500
2200
2200
2200
ENDCHAR
STARTCHAR wdieresis
ENCODING 7813
SWIDTH 722 0
DWIDTH 9 0
BBX 9 9 0 0
BITMAP
1400
0000
8880
8880
4900
4900
5500
2200
2200
ENDCHAR
STARTCHAR uni1E86
ENCODING 7814
SWIDTH 944 0
DWIDTH 11 0
BBX 9 11 1 0
BITMAP
0800
0000
8880
8880
8880
4900
5500
5500
2200
2200
2200
ENDCHAR
STARTCHAR uni1E87
ENCODING 7815
SWIDTH 722 0
DWIDTH 9 0
BBX 9 9 0 0
BITMAP
0800
0000
8880
8880
4900
4900
5500
2200
2200
ENDCHAR
STARTCHAR uni1E88
ENCODING 7816
SWIDTH 944 0
DWIDTH 11 0
BBX 9 11 1 -2
BITMAP
8880
8880
8880
4900
5500
5500
2200
2200
2200
0000
0800
ENDCHAR
STARTCHAR uni1E89
ENCODING 7817
SWIDTH 722 0
DWIDTH 9 0
BBX 9 9 0 -2
BITMAP
8880
8880
4900
4900
5500
2200
2200
0000
0800
ENDCHAR
STARTCHAR uni1E8A
ENCODING 7818
SWIDTH 667 0
DWIDTH 9 0
BBX 7 11 1 0
BITMAP
10
00
82
44
44
28
10
28
44
44
82
ENDCHAR
STARTCHAR uni1E8B
ENCODING 7819
SWIDTH 500 0
DWIDTH 6 0
BBX 6 9 0 0
BITMAP
10
00
84
48
30
30
48
84
84
ENDCHAR
STARTCHAR uni1E8C
ENCODING 7820
SWIDTH 667 0
DWIDTH 9 0
BBX 7 11 1 0
BITMAP
28
00
82
44
44
28
10
28
44
44
82
ENDCHAR
STARTCHAR uni1E8D
ENCODING 7821
SWIDTH 500 0
DWIDTH 6 0
BBX 6 9 0 0
BITMAP
28
00
84
48
30
30
48
84
84
ENDCHAR
STARTCHAR uni1E8E
ENCODING 7822
SWIDTH 667 0
DWIDTH 9 0
BBX 7 11 1 0
BITMAP
10
00
82
82
44
44
28
10
10
10
10
ENDCHAR
STARTCHAR uni1E8F
ENCODING 7823
SWIDTH 500 0
DWIDTH 7 0
BBX 5 12 1 -3
BITMAP
20
00
88
88
88
90
50
50
20
20
40
80
ENDCHAR
STARTCHAR uni1E90
ENCODING 7824
SWIDTH 611 0
DWIDTH 9 0
BBX 7 12 1 0
BITMAP
10
28
00
FE
02
04
08
10
20
40
80
FE
ENDCHAR
STARTCHAR uni1E91
ENCODING 7825
SWIDTH 500 0
DWIDTH 6 0
BBX 4 10 1 0
BITMAP
20
50
00
F0
10
20
40
40
80
F0
ENDCHAR
STARTCHAR uni1E92
ENCODING 7826
SWIDTH 611 0
DWIDTH 9 0
BBX 7 11 1 -2
BITMAP
FE
02
04
08
10
20
40
80
FE
00
10
ENDCHAR
STARTCHAR uni1E93
ENCODING 7827
SWIDTH 500 0
DWIDTH 6 0
BBX 4 9 1 -2
BITMAP
F0
10
20
40
40
80
F0
00
40
ENDCHAR
STARTCHAR uni1E94
ENCODING 7828
SWIDTH 611 0
DWIDTH 9 0
BBX 7 11 1 -2
BITMAP
FE
02
04
08
10
20
40
80
FE
00
78
ENDCHAR
STARTCHAR uni1E95
ENCODING 7829
SWIDTH 500 0
DWIDTH 6 0
BBX 4 9 1 -2
BITMAP
F0
10
20
40
40
80
F0
00
F0
ENDCHAR
STARTCHAR uni1E96
ENCODING 7830
SWIDTH 556 0
DWIDTH 7 0
BBX 5 11 1 -2
BITMAP
80
80
B0
C8
88
88
88
88
88
00
78
ENDCHAR
STARTCHAR uni1E97
ENCODING 7831
SWIDTH 278 0
DWIDTH 3 0
BBX 3 11 0 0
BITMAP
A0
00
40
40
E0
40
40
40
40
40
60
ENDCHAR
STARTCHAR uni1E98
ENCODING 7832
SWIDTH 722 0
DWIDTH 9 0
BBX 9 11 0 0
BITMAP
0C00
1200
0C00
0000
8880
8880
4900
4900
5500
2200
2200
ENDCHAR
STARTCHAR uni1E99
ENCODING 7833
SWIDTH 500 0
DWIDTH 7 0
BBX 5 14 1 -3
BITMAP
30
48
30
00
88
88
88
90
50
50
20
20
40
80
ENDCHAR
STARTCHAR uni1EA0
ENCODING 7840
SWIDTH 667 0
DWIDTH 9 0
BBX 7 11 1 -2
BITMAP
10
28
28
44
44
7C
82
82
82
00
10
ENDCHAR
STARTCHAR uni1EA1
ENCODING 7841
SWIDTH 556 0
DWIDTH 7 0
BBX 6 9 1 -2
BITMAP
70
88
08
78
88
88
74
00
10
ENDCHAR
STARTCHAR uni1EA4
ENCODING 7844
SWIDTH 667 0
DWIDTH 9 0
BBX 7 15 1 0
BITMAP
08
10
00
10
28
00
10
10
28
44
44
7C
82
82
82
ENDCHAR
STARTCHAR uni1EA5
ENCODING 7845
SWIDTH 556 0
DWIDTH 7 0
BBX 6 13 1 0
BITMAP
10
20
00
20
50
00
70
88
08
78
88
88
74
ENDCHAR
STARTCHAR uni1EA6
ENCODING 7846
SWIDTH 667 0
DWIDTH 9 0
BBX 7 15 1 0
BITMAP
20
10
00
10
28
00
10
10
28
44
44
7C
82
82
82
ENDCHAR
STARTCHAR uni1EA7
ENCODING 7847
SWIDTH 556 0
DWIDTH 7 0
BBX 6 13 1 0
BITMAP
40
20
00
20
50
00
70
88
08
78
88
88
74
ENDCHAR
STARTCHAR uni1EAA
ENCODING 7850
SWIDTH 667 0
DWIDTH 9 0
BBX 7 15 1 0
BITMAP
14
28
00
10
28
00
10
10
28
44
44
7C
82
82
82
ENDCHAR
STARTCHAR uni1EAB
ENCODING 7851
SWIDTH 556 0
DWIDTH 7 0
BBX 6 13 1 0
BITMAP
28
50
00
20
50
00
70
88
08
78
88
88
74
ENDCHAR
STARTCHAR uni1EAC
ENCODING 7852
SWIDTH 667 0
DWIDTH 9 0
BBX 7 14 1 -2
BITMAP
10
28
00
10
28
28
44
44
7C
82
82
82
00
10
ENDCHAR
STARTCHAR uni1EAD
ENCODING 7853
SWIDTH 556 0
DWIDTH 7 0
BBX 6 12 1 -2
BITMAP
20
50
00
70
88
08
78
88
88
74
00
10
ENDCHAR
STARTCHAR uni1EAE
ENCODING 7854
SWIDTH 667 0
DWIDTH 9 0
BBX 7 15 1 0
BITMAP
08
10
00
24
18
00
10
28
28
44
44
7C
82
82
82
ENDCHAR
STARTCHAR uni1EAF
ENCODING 7855
SWIDTH 556 0
DWIDTH 7 0
BBX 6 13 1 0
BITMAP
10
20
00
48
30
00
70
88
08
78
88
88
74
ENDCHAR
STARTCHAR uni1EB0
ENCODING 7856
SWIDTH 667 0
DWIDTH 9 0
BBX 7 15 1 0
BITMAP
20
10
00
24
18
00
10
28
28
44
44
7C
82
82
82
ENDCHAR
STARTCHAR uni1EB1
ENCODING 7857
SWIDTH 556 0
DWIDTH 7 0
BBX 6 13 1 0
BITMAP
20
10
00
48
30
00
70
88
08
78
88
88
74
ENDCHAR
STARTCHAR uni1EB4
ENCODING 7860
SWIDTH 667 0
DWIDTH 9 0
BBX 7 15 1 0
BITMAP
14
28
00
24
18
00
10
28
28
44
44
7C
82
82
82
ENDCHAR
STARTCHAR uni1EB5
ENCODING 7861
SWIDTH 556 0
DWIDTH 7 0
BBX 6 13 1 0
BITMAP
28
50
00
48
30
00
70
88
08
78
88
88
74
ENDCHAR
STARTCHAR uni1EB6
ENCODING 7862
SWIDTH 667 0
DWIDTH 9 0
BBX 7 14 1 -2
BITMAP
24
18
00
10
28
28
44
44
7C
82
82
82
00
10
ENDCHAR
STARTCHAR uni1EB7
ENCODING 7863
SWIDTH 556 0
DWIDTH 7 0
BBX 6 12 1 -2
BITMAP
48
30
00
70
88
08
78
88
88
74
00
10
ENDCHAR
STARTCHAR uni1EB8
ENCODING 7864
SWIDTH 667 0
DWIDTH 8 0
BBX 6 11 1 -2
BITMAP
FC
80
80
80
FC
80
80
80
FC
00
20
ENDCHAR
STARTCHAR uni1EB9
ENCODING 7865
SWIDTH 556 0
DWIDTH 7 0
BBX 5 9 1 -2
BITMAP
70
88
88
F8
80
88
70
00
20
ENDCHAR
STARTCHAR uni1EBC
ENCODING 7868
SWIDTH 667 0
DWIDTH 8 0
BBX 6 12 1 0
BITMAP
28
50
00
FC
80
80
80
FC
80
80
80
FC
ENDCHAR
STARTCHAR uni1EBD
ENCODING 7869
SWIDTH 556 0
DWIDTH 7 0
BBX 5 10 1 0
BITMAP
28
50
00
70
88
88
F8
80
88
70
ENDCHAR
STARTCHAR uni1EBE
ENCODING 7870
SWIDTH 667 0
DWIDTH 8 0
BBX 6 15 1 0
BITMAP
10
20
00
10
28
00
FC
80
80
80
FC
80
80
80
FC
ENDCHAR
STARTCHAR uni1EBF
ENCODING 7871
SWIDTH 556 0
DWIDTH 7 0
BBX 5 13 1 0
BITMAP
10
20
00
20
50
00
70
88
88
F8
80
88
70
ENDCHAR
STARTCHAR uni1EC0
ENCODING 7872
SWIDTH 667 0
DWIDTH 8 0
BBX 6 15 1 0
BITMAP
20
10
00
10
28
00
FC
80
80
80
FC
80
80
80
FC
ENDCHAR
STARTCHAR uni1EC1
ENCODING 7873
SWIDTH 556 0
DWIDTH 7 0
BBX 5 13 1 0
BITMAP
40
20
00
20
50
00
70
88
88
F8
80
88
70
ENDCHAR
STARTCHAR uni1EC4
ENCODING 7876
SWIDTH 667 0
DWIDTH 8 0
BBX 6 15 1 0
BITMAP
28
50
00
10
28
00
FC
80
80
80
FC
80
80
80
FC
ENDCHAR
STARTCHAR uni1EC5
ENCODING 7877
SWIDTH 556 0
DWIDTH 7 0
BBX 5 13 1 0
BITMAP
28
50
00
20
50
00
70
88
88
F8
80
88
70
ENDCHAR
STARTCHAR uni1EC6
ENCODING 7878
SWIDTH 667 0
DWIDTH 8 0
BBX 6 14 1 -2
BITMAP
20
50
00
FC
80
80
80
FC
80
80
80
FC
00
20
ENDCHAR
STARTCHAR uni1EC7
ENCODING 7879
SWIDTH 556 0
DWIDTH 7 0
BBX 5 12 1 -2
BITMAP
20
50
00
70
88
88
F8
80
88
70
00
20
ENDCHAR
STARTCHAR uni1ECA
ENCODING 7882
SWIDTH 278 0
DWIDTH 3 0
BBX 1 11 1 -2
BITMAP
80
80
80
80
80
80
80
80
80
00
80
ENDCHAR
STARTCHAR uni1ECB
ENCODING 7883
SWIDTH 222 0
DWIDTH 3 0
BBX 1 11 1 -2
BITMAP
80
00
80
80
80
80
80
80
80
00
80
ENDCHAR
STARTCHAR uni1ECC
ENCODING 7884
SWIDTH 778 0
DWIDTH 10 0
BBX 8 11 1 -2
BITMAP
3C
42
81
81
81
81
81
42
3C
00
08
ENDCHAR
STARTCHAR uni1ECD
ENCODING 7885
SWIDTH 556 0
DWIDTH 7 0
BBX 5 9 1 -2
BITMAP
70
88
88
88
88
88
70
00
20
ENDCHAR
STARTCHAR uni1ED0
ENCODING 7888
SWIDTH 778 0
DWIDTH 10 0
BBX 8 15 1 0
BITMAP
08
10
00
08
14
00
3C
42
81
81
81
81
81
42
3C
ENDCHAR
STARTCHAR uni1ED1
ENCODING 7889
SWIDTH 556 0
DWIDTH 7 0
BBX 5 13 1 0
BITMAP
10
20
00
20
50
00
70
88
88
88
88
88
70
ENDCHAR
STARTCHAR uni1ED2
ENCODING 7890
SWIDTH 778 0
DWIDTH 10 0
BBX 8 15 1 0
BITMAP
10
08
00
08
14
00
3C
42
81
81
81
81
81
42
3C
ENDCHAR
STARTCHAR uni1ED3
ENCODING 7891
SWIDTH 556 0
DWIDTH 7 0
BBX 5 13 1 0
BITMAP
40
20
00
20
50
00
70
88
88
88
88
88
70
ENDCHAR
STARTCHAR uni1ED6
ENCODING 7894
SWIDTH 778 0
DWIDTH 10 0
BBX 8 15 1 0
BITMAP
14
28
00
08
14
00
3C
42
81
81
81
81
81
42
3C
ENDCHAR
STARTCHAR uni1ED7
ENCODING 7895
SWIDTH 556 0
DWIDTH 7 0
BBX 5 13 1 0
BITMAP
28
50
00
20
50
00
70
88
88
88
88
88
70
ENDCHAR
STARTCHAR uni1ED8
ENCODING 7896
SWIDTH 778 0
DWIDTH 10 0
BBX 8 14 1 -2
BITMAP
08
14
00
3C
42
81
81
81
81
81
42
3C
00
08
ENDCHAR
STARTCHAR uni1ED9
ENCODING 7897
SWIDTH 556 0
DWIDTH 7 0
BBX 5 12 1 -2
BITMAP
20
50
00
70
88
88
88
88
88
70
00
20
ENDCHAR
STARTCHAR uni1EDA
ENCODING 7898
SWIDTH 778 0
DWIDTH 10 0
BBX 10 12 1 0
BITMAP
0200
0400
0000
3CC0
4240
8180
8100
8100
8100
8100
4200
3C00
ENDCHAR
STARTCHAR uni1EDB
ENCODING 7899
SWIDTH 556 0
DWIDTH 7 0
BBX 7 10 1 0
BITMAP
08
10
00
76
8A
8C
88
88
88
70
ENDCHAR
STARTCHAR uni1EDC
ENCODING 7900
SWIDTH 778 0
DWIDTH 10 0
BBX 10 12 1 0
BITMAP
0800
0400
0000
3CC0
4240
8180
8100
8100
8100
8100
4200
3C00
ENDCHAR
STARTCHAR uni1EDD
ENCODING 7901
SWIDTH 556 0
DWIDTH 7 0
BBX 7 10 1 0
BITMAP
20
10
00
76
8A
8C
88
88
88
70
ENDCHAR
STARTCHAR uni1EE0
ENCODING 7904
SWIDTH 778 0
DWIDTH 10 0
BBX 10 12 1 0
BITMAP
0500
0A00
0000
3CC0
4240
8180
8100
8100
8100
8100
4200
3C00
ENDCHAR
STARTCHAR uni1EE1
ENCODING 7905
SWIDTH 556 0
DWIDTH 7 0
BBX 7 10 1 0
BITMAP
14
28
00
76
8A
8C
88
88
88
70
ENDCHAR
STARTCHAR uni1EE2
ENCODING 7906
SWIDTH 778 0
DWIDTH 10 0
BBX 10 11 1 -2
BITMAP
3CC0
4240
8180
8100
8100
8100
8100
4200
3C00
0000
0800
ENDCHAR
STARTCHAR uni1EE3
ENCODING 7907
SWIDTH 556 0
DWIDTH 7 0
BBX 7 9 1 -2
BITMAP
76
8A
8C
88
88
88
70
00
20
ENDCHAR
STARTCHAR uni1EE4
ENCODING 7908
SWIDTH 722 0
DWIDTH 8 0
BBX 6 11 1 -2
BITMAP
84
84
84
84
84
84
84
84
78
00
10
ENDCHAR
STARTCHAR uni1EE5
ENCODING 7909
SWIDTH 556 0
DWIDTH 7 0
BBX 5 9 1 -2
BITMAP
88
88
88
88
88
98
68
00
20
ENDCHAR
STARTCHAR uni1EE8
ENCODING 7912
SWIDTH 722 0
DWIDTH 8 0
BBX 8 12 1 0
BITMAP
04
08
00
87
85
86
84
84
84
84
84
78
ENDCHAR
STARTCHAR uni1EE9
ENCODING 7913
SWIDTH 556 0
DWIDTH 7 0
BBX 7 10 1 0
BITMAP
08
10
00
8E
8A
8C
88
88
98
68
ENDCHAR
STARTCHAR uni1EEA
ENCODING 7914
SWIDTH 722 0
DWIDTH 8 0
BBX 8 12 1 0
BITMAP
10
08
00
87
85
86
84
84
84
84
84
78
ENDCHAR
STARTCHAR uni1EEB
ENCODING 7915
SWIDTH 556 0
DWIDTH 7 0
BBX 7 10 1 0
BITMAP
10
08
00
8E
8A
8C
88
88
98
68
ENDCHAR
STARTCHAR uni1EEE
ENCODING 7918
SWIDTH 722 0
DWIDTH 8 0
BBX 8 12 1 0
BITMAP
0A
14
00
87
85
86
84
84
84
84
84
78
ENDCHAR
STARTCHAR uni1EEF
ENCODING 7919
SWIDTH 556 0
DWIDTH 7 0
BBX 7 10 1 0
BITMAP
14
28
00
8E
8A
8C
88
88
98
68
ENDCHAR
STARTCHAR uni1EF0
ENCODING 7920
SWIDTH 722 0
DWIDTH 8 0
BBX 8 11 1 -2
BITMAP
87
85
86
84
84
84
84
84
78
00
10
ENDCHAR
STARTCHAR uni1EF1
ENCODING 7921
SWIDTH 556 0
DWIDTH 7 0
BBX 7 9 1 -2
BITMAP
8E
8A
8C
88
88
98
68
00
10
ENDCHAR
STARTCHAR Ygrave
ENCODING 7922
SWIDTH 667 0
DWIDTH 9 0
BBX 7 12 1 0
BITMAP
20
10
00
82
82
44
44
28
10
10
10
10
ENDCHAR
STARTCHAR ygrave
ENCODING 7923
SWIDTH 500 0
DWIDTH 7 0
BBX 5 13 1 -3
BITMAP
40
20
00
88
88
88
90
50
50
20
20
40
80
ENDCHAR
STARTCHAR uni1EF4
ENCODING 7924
SWIDTH 667 0
DWIDTH 9 0
BBX 7 11 1 -2
BITMAP
82
82
44
44
28
10
10
10
10
00
10
ENDCHAR
STARTCHAR uni1EF5
ENCODING 7925
SWIDTH 500 0
DWIDTH 7 0
BBX 5 12 1 -5
BITMAP
88
88
88
90
50
50
20
20
40
80
00
40
ENDCHAR
STARTCHAR uni1EF8
ENCODING 7928
SWIDTH 667 0
DWIDTH 9 0
BBX 7 12 1 0
BITMAP
14
28
00
82
82
44
44
28
10
10
10
10
ENDCHAR
STARTCHAR uni1EF9
ENCODING 7929
SWIDTH 500 0
DWIDTH 7 0
BBX 5 13 1 -3
BITMAP
28
50
00
88
88
88
90
50
50
20
20
40
80
ENDCHAR
STARTCHAR uni2000
ENCODING 8192
SWIDTH 500 0
DWIDTH 6 0
BBX 1 1 0 0
BITMAP
00
ENDCHAR
STARTCHAR uni2001
ENCODING 8193
SWIDTH 1000 0
DWIDTH 13 0
BBX 1 1 0 0
BITMAP
00
ENDCHAR
STARTCHAR uni2002
ENCODING 8194
SWIDTH 500 0
DWIDTH 6 0
BBX 1 1 0 0
BITMAP
00
ENDCHAR
STARTCHAR uni2003
ENCODING 8195
SWIDTH 1000 0
DWIDTH 13 0
BBX 1 1 0 0
BITMAP
00
ENDCHAR
STARTCHAR uni2004
ENCODING 8196
SWIDTH 333 0
DWIDTH 4 0
BBX 1 1 0 0
BITMAP
00
ENDCHAR
STARTCHAR uni2005
ENCODING 8197
SWIDTH 250 0
DWIDTH 3 0
BBX 1 1 0 0
BITMAP
00
ENDCHAR
STARTCHAR uni2006
ENCODING 8198
SWIDTH 167 0
DWIDTH 2 0
BBX 1 1 0 0
BITMAP
00
ENDCHAR
STARTCHAR uni2007
ENCODING 8199
SWIDTH 556 0
DWIDTH 7 0
BBX 1 1 0 0
BITMAP
00
ENDCHAR
STARTCHAR uni2008
ENCODING 8200
SWIDTH 278 0
DWIDTH 3 0
BBX 1 1 0 0
BITMAP
00
ENDCHAR
STARTCHAR uni2009
ENCODING 8201
SWIDTH 200 0
DWIDTH 3 0
BBX 1 1 0 0
BITMAP
00
ENDCHAR
STARTCHAR uni200A
ENCODING 8202
SWIDTH 100 0
DWIDTH 1 0
BBX 1 1 0 0
BITMAP
00
ENDCHAR
STARTCHAR uni200B
ENCODING 8203
SWIDTH 0 0
DWIDTH 0 0
BBX 1 1 0 0
BITMAP
00
ENDCHAR
STARTCHAR uni2010
ENCODING 8208
SWIDTH 333 0
DWIDTH 5 0
BBX 4 1 0 3
BITMAP
F0
ENDCHAR
STARTCHAR uni2011
ENCODING 8209
SWIDTH 333 0
DWIDTH 5 0
BBX 4 1 0 3
BITMAP
F0
ENDCHAR
STARTCHAR figuredash
ENCODING 8210
SWIDTH 556 0
DWIDTH 7 0
BBX 7 1 0 3
BITMAP
FE
ENDCHAR
STARTCHAR endash
ENCODING 8211
SWIDTH 556 0
DWIDTH 7 0
BBX 7 1 0 3
BITMAP
FE
ENDCHAR
STARTCHAR emdash
ENCODING 8212
SWIDTH 1000 0
DWIDTH 12 0
BBX 12 1 0 3
BITMAP
FFF0
ENDCHAR
STARTCHAR afii00208
ENCODING 8213
SWIDTH 1000 0
DWIDTH 12 0
BBX 12 1 0 3
BITMAP
FFF0
ENDCHAR
STARTCHAR quoteleft
ENCODING 8216
SWIDTH 222 0
DWIDTH 3 0
BBX 2 3 0 6
BITMAP
40
80
C0
ENDCHAR
STARTCHAR quoteright
ENCODING 8217
SWIDTH 222 0
DWIDTH 3 0
BBX 2 3 1 6
BITMAP
C0
40
80
ENDCHAR
STARTCHAR quotesinglbase
ENCODING 8218
SWIDTH 222 0
DWIDTH 3 0
BBX 2 3 1 -2
BITMAP
C0
40
80
ENDCHAR
STARTCHAR quotereversed
ENCODING 8219
SWIDTH 222 0
DWIDTH 3 0
BBX 2 3 1 6
BITMAP
C0
80
40
ENDCHAR
STARTCHAR quotedblleft
ENCODING 8220
SWIDTH 333 0
DWIDTH 5 0
BBX 5 3 0 6
BITMAP
48
90
D8
ENDCHAR
STARTCHAR quotedblright
ENCODING 8221
SWIDTH 333 0
DWIDTH 5 0
BBX 5 3 0 6
BITMAP
D8
48
90
ENDCHAR
STARTCHAR quotedblbase
ENCODING 8222
SWIDTH 333 0
DWIDTH 5 0
BBX 5 3 0 -2
BITMAP
D8
48
90
ENDCHAR
STARTCHAR uni201F
ENCODING 8223
SWIDTH 333 0
DWIDTH 5 0
BBX 5 3 0 6
BITMAP
D8
90
48
ENDCHAR
STARTCHAR dagger
ENCODING 8224
SWIDTH 556 0
DWIDTH 7 0
BBX 5 12 1 -3
BITMAP
20
20
20
F8
20
20
20
20
20
20
20
20
ENDCHAR
STARTCHAR daggerdbl
ENCODING 8225
SWIDTH 556 0
DWIDTH 7 0
BBX 5 12 1 -3
BITMAP
20
20
20
F8
20
20
20
20
F8
20
20
20
ENDCHAR
STARTCHAR bullet
ENCODING 8226
SWIDTH 350 0
DWIDTH 5 0
BBX 3 3 1 3
BITMAP
40
E0
40
ENDCHAR
STARTCHAR ellipsis
ENCODING 8230
SWIDTH 1000 0
DWIDTH 11 0
BBX 9 1 1 0
BITMAP
8880
ENDCHAR
STARTCHAR perthousand
ENCODING 8240
SWIDTH 1000 0
DWIDTH 14 0
BBX 13 8 0 0
BITMAP
6200
9400
9400
6800
0B30
14C8
14C8
2330
ENDCHAR
STARTCHAR guilsinglleft
ENCODING 8249
SWIDTH 333 0
DWIDTH 5 0
BBX 3 5 1 1
BITMAP
20
40
80
40
20
ENDCHAR
STARTCHAR guilsinglright
ENCODING 8250
SWIDTH 333 0
DWIDTH 5 0
BBX 3 5 1 1
BITMAP
80
40
20
40
80
ENDCHAR
STARTCHAR fraction
ENCODING 8260
SWIDTH 167 0
DWIDTH 4 0
BBX 5 8 -1 0
BITMAP
08
10
10
20
20
40
40
80
ENDCHAR
STARTCHAR oneinferior
ENCODING 8321
SWIDTH 333 0
DWIDTH 4 0
BBX 2 5 1 -3
BITMAP
40
C0
40
40
40
ENDCHAR
STARTCHAR twoinferior
ENCODING 8322
SWIDTH 333 0
DWIDTH 4 0
BBX 4 5 0 -3
BITMAP
60
90
20
40
F0
ENDCHAR
STARTCHAR threeinferior
ENCODING 8323
SWIDTH 333 0
DWIDTH 4 0
BBX 3 5 0 -3
BITMAP
E0
20
40
20
C0
ENDCHAR
STARTCHAR uni20A5
ENCODING 8357
SWIDTH 833 0
DWIDTH 9 0
BBX 7 9 1 -1
BITMAP
04
A4
DA
9A
92
92
92
B2
20
ENDCHAR
STARTCHAR uni20A6
ENCODING 8358
SWIDTH 722 0
DWIDTH 9 0
BBX 7 9 1 0
BITMAP
82
C2
A2
FE
92
FE
8A
86
82
ENDCHAR
STARTCHAR uni20A9
ENCODING 8361
SWIDTH 944 0
DWIDTH 11 0
BBX 9 9 1 0
BITMAP
8880
8880
8880
7F00
5500
7F00
2200
2200
2200
ENDCHAR
STARTCHAR Euro
ENCODING 8364
SWIDTH 722 0
DWIDTH 9 0
BBX 8 9 0 0
BITMAP
1E
21
40
F8
40
F8
40
21
1E
ENDCHAR
STARTCHAR uni20AD
ENCODING 8365
SWIDTH 667 0
DWIDTH 8 0
BBX 7 9 1 0
BITMAP
84
88
90
A0
FE
90
88
84
82
ENDCHAR
STARTCHAR uni2103
ENCODING 8451
SWIDTH 1102 0
DWIDTH 14 0
BBX 13 9 0 0
BITMAP
00F0
6108
9200
9200
6200
0200
0200
0108
00F0
ENDCHAR
STARTCHAR uni2109
ENCODING 8457
SWIDTH 991 0
DWIDTH 13 0
BBX 12 9 0 0
BITMAP
03F0
6200
9200
9200
63E0
0200
0200
0200
0200
ENDCHAR
STARTCHAR trademark
ENCODING 8482
SWIDTH 1000 0
DWIDTH 11 0
BBX 9 5 1 4
BITMAP
E880
4D80
4D80
4A80
4A80
ENDCHAR
STARTCHAR uni212A
ENCODING 8490
SWIDTH 667 0
DWIDTH 8 0
BBX 7 9 1 0
BITMAP
84
88
90
A0
E0
90
88
84
82
ENDCHAR
STARTCHAR uni212B
ENCODING 8491
SWIDTH 667 0
DWIDTH 9 0
BBX 7 12 1 0
BITMAP
10
28
10
10
10
28
44
44
7C
82
82
82
ENDCHAR
STARTCHAR uni2132
ENCODING 8498
SWIDTH 611 0
DWIDTH 8 0
BBX 6 9 1 0
BITMAP
04
04
04
04
7C
04
04
04
FC
ENDCHAR
STARTCHAR universal
ENCODING 8704
SWIDTH 667 0
DWIDTH 9 0
BBX 7 9 1 0
BITMAP
82
82
82
7C
44
44
28
28
10
ENDCHAR
STARTCHAR existential
ENCODING 8707
SWIDTH 667 0
DWIDTH 8 0
BBX 6 9 1 0
BITMAP
FC
04
04
04
FC
04
04
04
FC
ENDCHAR
STARTCHAR uni2204
ENCODING 8708
SWIDTH 667 0
DWIDTH 8 0
BBX 6 9 1 0
BITMAP
FC
0C
14
14
FC
24
24
44
FC
ENDCHAR
STARTCHAR minus
ENCODING 8722
SWIDTH 584 0
DWIDTH 8 0
BBX 5 1 1 3
BITMAP
F8
ENDCHAR
STARTCHAR fraction
ENCODING 8725
SWIDTH 167 0
DWIDTH 4 0
BBX 5 8 -1 0
BITMAP
08
10
10
20
20
40
40
80
ENDCHAR
STARTCHAR periodcentered
ENCODING 8729
SWIDTH 278 0
DWIDTH 3 0
BBX 1 1 1 3
BITMAP
80
ENDCHAR
STARTCHAR uni2236
ENCODING 8758
SWIDTH 278 0
DWIDTH 3 0
BBX 1 6 1 0
BITMAP
80
00
00
00
00
80
ENDCHAR
STARTCHAR uni2259
ENCODING 8793
SWIDTH 584 0
DWIDTH 7 0
BBX 5 6 1 2
BITMAP
20
50
00
F8
00
F8
ENDCHAR
STARTCHAR uni225A
ENCODING 8794
SWIDTH 584 0
DWIDTH 7 0
BBX 5 6 1 2
BITMAP
50
20
00
F8
00
F8
ENDCHAR
STARTCHAR notequal
ENCODING 8800
SWIDTH 584 0
DWIDTH 7 0
BBX 5 9 1 -1
BITMAP
08
08
10
F8
20
F8
20
40
40
ENDCHAR
STARTCHAR equivalence
ENCODING 8801
SWIDTH 584 0
DWIDTH 7 0
BBX 5 5 0 1
BITMAP
F8
00
F8
00
F8
ENDCHAR
STARTCHAR uni2262
ENCODING 8802
SWIDTH 584 0
DWIDTH 7 0
BBX 5 9 0 -1
BITMAP
08
08
F8
10
F8
20
F8
40
40
ENDCHAR
STARTCHAR lessequal
ENCODING 8804
SWIDTH 584 0
DWIDTH 7 0
BBX 6 7 0 -1
BITMAP
0C
30
C0
30
0C
00
FC
ENDCHAR
STARTCHAR greaterequal
ENCODING 8805
SWIDTH 584 0
DWIDTH 7 0
BBX 6 7 1 -1
BITMAP
C0
30
0C
30
C0
00
FC
ENDCHAR
STARTCHAR uni226E
ENCODING 8814
SWIDTH 584 0
DWIDTH 7 0
BBX 6 9 0 -1
BITMAP
08
08
1C
30
E0
30
2C
40
40
ENDCHAR
STARTCHAR uni226F
ENCODING 8815
SWIDTH 584 0
DWIDTH 7 0
BBX 6 9 1 -1
BITMAP
08
08
D0
30
2C
30
E0
40
40
ENDCHAR
STARTCHAR uni2270
ENCODING 8816
SWIDTH 584 0
DWIDTH 7 0
BBX 6 9 0 -2
BITMAP
08
0C
30
D0
30
2C
20
FC
40
ENDCHAR
STARTCHAR uni2271
ENCODING 8817
SWIDTH 584 0
DWIDTH 7 0
BBX 6 9 1 -2
BITMAP
08
C8
30
1C
30
E0
20
FC
40
ENDCHAR
STARTCHAR fi
ENCODING -1
SWIDTH 500 0
DWIDTH 6 0
BBX 5 9 0 0
BITMAP
38
40
E8
48
48
48
48
48
48
ENDCHAR
STARTCHAR fl
ENCODING -1
SWIDTH 500 0
DWIDTH 6 0
BBX 5 9 0 0
BITMAP
38
48
E8
48
48
48
48
48
48
ENDCHAR
ENDFONT
